<svg width="260" height="260" viewBox="0 0 260 260" fill="none" xmlns="http://www.w3.org/2000/svg">
<circle cx="130" cy="130" r="128.5" fill="white" stroke="#8EA100" stroke-width="3"/>
<path d="M108.84 81.86V86L93.84 122.6L88.8 120.92L103.26 86.36H85.5V81.86H108.84ZM131.388 100.46C137.028 102.74 139.848 106.34 139.848 111.26C139.848 113.46 139.248 115.44 138.048 117.2C136.888 118.92 135.248 120.28 133.128 121.28C131.008 122.24 128.608 122.72 125.928 122.72C123.208 122.72 120.808 122.24 118.728 121.28C116.648 120.32 115.028 118.98 113.868 117.26C112.748 115.54 112.188 113.58 112.188 111.38C112.188 108.9 112.848 106.82 114.168 105.14C115.528 103.46 117.508 102.06 120.108 100.94C117.988 99.86 116.408 98.56 115.368 97.04C114.368 95.48 113.868 93.66 113.868 91.58C113.868 89.42 114.428 87.56 115.548 86C116.708 84.44 118.208 83.26 120.048 82.46C121.928 81.66 123.928 81.26 126.048 81.26C128.128 81.26 130.088 81.64 131.928 82.4C133.808 83.16 135.328 84.32 136.488 85.88C137.648 87.4 138.228 89.24 138.228 91.4C138.228 93.4 137.668 95.12 136.548 96.56C135.428 98 133.708 99.3 131.388 100.46ZM126.048 85.4C123.968 85.4 122.308 85.94 121.068 87.02C119.868 88.1 119.268 89.64 119.268 91.64C119.268 93.56 119.848 95.02 121.008 96.02C122.208 97.02 124.108 97.94 126.708 98.78L127.728 99.14C129.528 98.1 130.828 97 131.628 95.84C132.428 94.68 132.828 93.26 132.828 91.58C132.828 89.7 132.228 88.2 131.028 87.08C129.868 85.96 128.208 85.4 126.048 85.4ZM125.988 118.34C128.468 118.34 130.428 117.7 131.868 116.42C133.348 115.14 134.088 113.44 134.088 111.32C134.088 109.88 133.808 108.68 133.248 107.72C132.688 106.72 131.788 105.86 130.548 105.14C129.308 104.38 127.568 103.62 125.328 102.86L123.828 102.32C121.828 103.28 120.348 104.5 119.388 105.98C118.428 107.42 117.948 109.22 117.948 111.38C117.948 113.58 118.668 115.3 120.108 116.54C121.548 117.74 123.508 118.34 125.988 118.34ZM159.275 81.26C163.715 81.26 167.055 83.04 169.295 86.6C171.575 90.12 172.715 95.24 172.715 101.96C172.715 108.68 171.575 113.82 169.295 117.38C167.055 120.94 163.715 122.72 159.275 122.72C154.835 122.72 151.475 120.94 149.195 117.38C146.955 113.82 145.835 108.68 145.835 101.96C145.835 95.24 146.955 90.12 149.195 86.6C151.475 83.04 154.835 81.26 159.275 81.26ZM159.275 85.64C156.675 85.64 154.735 86.92 153.455 89.48C152.215 92.04 151.595 96.2 151.595 101.96C151.595 107.72 152.215 111.9 153.455 114.5C154.735 117.06 156.675 118.34 159.275 118.34C161.835 118.34 163.755 117.06 165.035 114.5C166.315 111.9 166.955 107.72 166.955 101.96C166.955 96.24 166.315 92.1 165.035 89.54C163.755 86.94 161.835 85.64 159.275 85.64Z" fill="#3B3B00"/>
<path d="M64.7286 160C64.5206 160 64.3606 159.952 64.2486 159.856C64.1366 159.744 64.0406 159.592 63.9606 159.4L60.5526 148.264C60.5206 148.184 60.5046 148.104 60.5046 148.024C60.5046 147.88 60.5526 147.76 60.6486 147.664C60.7606 147.568 60.8806 147.52 61.0086 147.52H62.0646C62.2406 147.52 62.3766 147.568 62.4726 147.664C62.5686 147.76 62.6326 147.848 62.6646 147.928L65.3286 156.976L68.1846 148.024C68.2166 147.912 68.2806 147.8 68.3766 147.688C68.4886 147.576 68.6486 147.52 68.8566 147.52H69.6726C69.8806 147.52 70.0406 147.576 70.1526 147.688C70.2646 147.8 70.3286 147.912 70.3446 148.024L73.2006 156.976L75.8646 147.928C75.8806 147.848 75.9366 147.76 76.0326 147.664C76.1286 147.568 76.2646 147.52 76.4406 147.52H77.4966C77.6406 147.52 77.7606 147.568 77.8566 147.664C77.9526 147.76 78.0006 147.88 78.0006 148.024C78.0006 148.104 77.9846 148.184 77.9526 148.264L74.5446 159.4C74.4966 159.592 74.4086 159.744 74.2806 159.856C74.1686 159.952 74.0006 160 73.7766 160H72.8406C72.6326 160 72.4566 159.952 72.3126 159.856C72.1846 159.744 72.0966 159.592 72.0486 159.4L69.2646 150.808L66.4806 159.4C66.4166 159.592 66.3206 159.744 66.1926 159.856C66.0646 159.952 65.8886 160 65.6646 160H64.7286ZM81.2108 160C81.0508 160 80.9148 159.952 80.8028 159.856C80.7068 159.744 80.6588 159.608 80.6588 159.448V148.072C80.6588 147.912 80.7068 147.784 80.8028 147.688C80.9148 147.576 81.0508 147.52 81.2108 147.52H82.3628C82.5228 147.52 82.6508 147.576 82.7468 147.688C82.8428 147.784 82.8908 147.912 82.8908 148.072V159.448C82.8908 159.608 82.8428 159.744 82.7468 159.856C82.6508 159.952 82.5228 160 82.3628 160H81.2108ZM81.0188 145.192C80.8588 145.192 80.7228 145.144 80.6108 145.048C80.5148 144.936 80.4668 144.8 80.4668 144.64V143.344C80.4668 143.184 80.5148 143.056 80.6108 142.96C80.7228 142.848 80.8588 142.792 81.0188 142.792H82.5308C82.6908 142.792 82.8188 142.848 82.9148 142.96C83.0268 143.056 83.0828 143.184 83.0828 143.344V144.64C83.0828 144.8 83.0268 144.936 82.9148 145.048C82.8188 145.144 82.6908 145.192 82.5308 145.192H81.0188ZM87.2577 160C87.0977 160 86.9617 159.952 86.8497 159.856C86.7537 159.744 86.7057 159.608 86.7057 159.448V148.072C86.7057 147.912 86.7537 147.784 86.8497 147.688C86.9617 147.576 87.0977 147.52 87.2577 147.52H88.3857C88.5457 147.52 88.6737 147.576 88.7697 147.688C88.8817 147.784 88.9377 147.912 88.9377 148.072V149.128C89.3537 148.584 89.8737 148.144 90.4977 147.808C91.1377 147.456 91.9537 147.28 92.9457 147.28C93.9857 147.28 94.8657 147.512 95.5857 147.976C96.3217 148.424 96.8737 149.056 97.2417 149.872C97.6097 150.672 97.7937 151.608 97.7937 152.68V159.448C97.7937 159.608 97.7457 159.744 97.6497 159.856C97.5537 159.952 97.4257 160 97.2657 160H96.0657C95.9057 160 95.7697 159.952 95.6577 159.856C95.5617 159.744 95.5137 159.608 95.5137 159.448V152.8C95.5137 151.68 95.2417 150.808 94.6977 150.184C94.1537 149.544 93.3537 149.224 92.2977 149.224C91.3057 149.224 90.5057 149.544 89.8977 150.184C89.3057 150.808 89.0097 151.68 89.0097 152.8V159.448C89.0097 159.608 88.9537 159.744 88.8417 159.856C88.7457 159.952 88.6177 160 88.4577 160H87.2577ZM105.82 160.24C104.94 160.24 104.18 160.088 103.54 159.784C102.9 159.464 102.372 159.04 101.956 158.512C101.556 157.968 101.252 157.352 101.044 156.664C100.852 155.976 100.74 155.248 100.708 154.48C100.692 154.224 100.684 153.984 100.684 153.76C100.684 153.536 100.692 153.296 100.708 153.04C100.74 152.288 100.852 151.568 101.044 150.88C101.252 150.192 101.556 149.576 101.956 149.032C102.372 148.488 102.9 148.064 103.54 147.76C104.18 147.44 104.94 147.28 105.82 147.28C106.764 147.28 107.548 147.448 108.172 147.784C108.796 148.12 109.308 148.536 109.708 149.032V143.512C109.708 143.352 109.756 143.224 109.852 143.128C109.964 143.016 110.1 142.96 110.26 142.96H111.412C111.572 142.96 111.7 143.016 111.796 143.128C111.908 143.224 111.964 143.352 111.964 143.512V159.448C111.964 159.608 111.908 159.744 111.796 159.856C111.7 159.952 111.572 160 111.412 160H110.332C110.156 160 110.02 159.952 109.924 159.856C109.828 159.744 109.78 159.608 109.78 159.448V158.44C109.38 158.952 108.86 159.384 108.22 159.736C107.58 160.072 106.78 160.24 105.82 160.24ZM106.324 158.296C107.124 158.296 107.764 158.112 108.244 157.744C108.724 157.376 109.084 156.912 109.324 156.352C109.564 155.776 109.692 155.192 109.708 154.6C109.724 154.344 109.732 154.04 109.732 153.688C109.732 153.32 109.724 153.008 109.708 152.752C109.692 152.192 109.556 151.64 109.3 151.096C109.06 150.552 108.692 150.104 108.196 149.752C107.716 149.4 107.092 149.224 106.324 149.224C105.508 149.224 104.86 149.408 104.38 149.776C103.9 150.128 103.556 150.6 103.348 151.192C103.14 151.768 103.02 152.392 102.988 153.064C102.972 153.528 102.972 153.992 102.988 154.456C103.02 155.128 103.14 155.76 103.348 156.352C103.556 156.928 103.9 157.4 104.38 157.768C104.86 158.12 105.508 158.296 106.324 158.296ZM125.773 160C124.877 160 124.149 159.832 123.589 159.496C123.029 159.144 122.621 158.656 122.365 158.032C122.109 157.392 121.981 156.64 121.981 155.776V149.44H120.109C119.949 149.44 119.813 149.392 119.701 149.296C119.605 149.184 119.557 149.048 119.557 148.888V148.072C119.557 147.912 119.605 147.784 119.701 147.688C119.813 147.576 119.949 147.52 120.109 147.52H121.981V143.512C121.981 143.352 122.029 143.224 122.125 143.128C122.237 143.016 122.373 142.96 122.533 142.96H123.661C123.821 142.96 123.949 143.016 124.045 143.128C124.157 143.224 124.213 143.352 124.213 143.512V147.52H127.189C127.349 147.52 127.477 147.576 127.573 147.688C127.685 147.784 127.741 147.912 127.741 148.072V148.888C127.741 149.048 127.685 149.184 127.573 149.296C127.477 149.392 127.349 149.44 127.189 149.44H124.213V155.608C124.213 156.36 124.341 156.952 124.597 157.384C124.853 157.816 125.309 158.032 125.965 158.032H127.429C127.589 158.032 127.717 158.088 127.813 158.2C127.925 158.296 127.981 158.424 127.981 158.584V159.448C127.981 159.608 127.925 159.744 127.813 159.856C127.717 159.952 127.589 160 127.429 160H125.773ZM134.932 160.24C133.908 160.24 133.036 160.016 132.316 159.568C131.612 159.104 131.076 158.464 130.708 157.648C130.34 156.832 130.156 155.896 130.156 154.84V148.072C130.156 147.912 130.204 147.784 130.3 147.688C130.412 147.576 130.548 147.52 130.708 147.52H131.908C132.068 147.52 132.196 147.576 132.292 147.688C132.404 147.784 132.46 147.912 132.46 148.072V154.72C132.46 157.104 133.5 158.296 135.58 158.296C136.572 158.296 137.364 157.984 137.956 157.36C138.564 156.72 138.868 155.84 138.868 154.72V148.072C138.868 147.912 138.916 147.784 139.012 147.688C139.124 147.576 139.26 147.52 139.42 147.52H140.596C140.772 147.52 140.908 147.576 141.004 147.688C141.1 147.784 141.148 147.912 141.148 148.072V159.448C141.148 159.608 141.1 159.744 141.004 159.856C140.908 159.952 140.772 160 140.596 160H139.492C139.332 160 139.196 159.952 139.084 159.856C138.988 159.744 138.94 159.608 138.94 159.448V158.392C138.508 158.952 137.98 159.4 137.356 159.736C136.748 160.072 135.94 160.24 134.932 160.24ZM145.266 160C145.106 160 144.97 159.952 144.858 159.856C144.762 159.744 144.714 159.608 144.714 159.448V148.096C144.714 147.936 144.762 147.8 144.858 147.688C144.97 147.576 145.106 147.52 145.266 147.52H146.37C146.53 147.52 146.666 147.576 146.778 147.688C146.89 147.8 146.946 147.936 146.946 148.096V149.152C147.266 148.608 147.706 148.2 148.266 147.928C148.826 147.656 149.498 147.52 150.282 147.52H151.242C151.402 147.52 151.53 147.576 151.626 147.688C151.722 147.784 151.77 147.912 151.77 148.072V149.056C151.77 149.216 151.722 149.344 151.626 149.44C151.53 149.536 151.402 149.584 151.242 149.584H149.802C148.938 149.584 148.258 149.84 147.762 150.352C147.266 150.848 147.018 151.528 147.018 152.392V159.448C147.018 159.608 146.962 159.744 146.85 159.856C146.738 159.952 146.602 160 146.442 160H145.266ZM159.999 160.24C159.039 160.24 158.239 160.072 157.599 159.736C156.959 159.384 156.447 158.952 156.063 158.44V159.448C156.063 159.608 156.007 159.744 155.895 159.856C155.799 159.952 155.671 160 155.511 160H154.407C154.247 160 154.111 159.952 153.999 159.856C153.903 159.744 153.855 159.608 153.855 159.448V143.512C153.855 143.352 153.903 143.224 153.999 143.128C154.111 143.016 154.247 142.96 154.407 142.96H155.559C155.735 142.96 155.871 143.016 155.967 143.128C156.063 143.224 156.111 143.352 156.111 143.512V149.032C156.511 148.536 157.023 148.12 157.647 147.784C158.287 147.448 159.071 147.28 159.999 147.28C160.895 147.28 161.655 147.44 162.279 147.76C162.919 148.064 163.439 148.488 163.839 149.032C164.255 149.576 164.567 150.192 164.775 150.88C164.983 151.568 165.095 152.288 165.111 153.04C165.127 153.296 165.135 153.536 165.135 153.76C165.135 153.984 165.127 154.224 165.111 154.48C165.095 155.248 164.983 155.976 164.775 156.664C164.567 157.352 164.255 157.968 163.839 158.512C163.439 159.04 162.919 159.464 162.279 159.784C161.655 160.088 160.895 160.24 159.999 160.24ZM159.495 158.296C160.327 158.296 160.975 158.12 161.439 157.768C161.919 157.4 162.263 156.928 162.471 156.352C162.679 155.76 162.799 155.128 162.831 154.456C162.847 153.992 162.847 153.528 162.831 153.064C162.799 152.392 162.679 151.768 162.471 151.192C162.263 150.6 161.919 150.128 161.439 149.776C160.975 149.408 160.327 149.224 159.495 149.224C158.743 149.224 158.119 149.4 157.623 149.752C157.127 150.104 156.751 150.552 156.495 151.096C156.255 151.64 156.127 152.192 156.111 152.752C156.095 153.008 156.087 153.32 156.087 153.688C156.087 154.04 156.095 154.344 156.111 154.6C156.143 155.192 156.271 155.776 156.495 156.352C156.735 156.912 157.095 157.376 157.575 157.744C158.071 158.112 158.711 158.296 159.495 158.296ZM168.656 160C168.496 160 168.36 159.952 168.248 159.856C168.152 159.744 168.104 159.608 168.104 159.448V148.072C168.104 147.912 168.152 147.784 168.248 147.688C168.36 147.576 168.496 147.52 168.656 147.52H169.808C169.968 147.52 170.096 147.576 170.192 147.688C170.288 147.784 170.336 147.912 170.336 148.072V159.448C170.336 159.608 170.288 159.744 170.192 159.856C170.096 159.952 169.968 160 169.808 160H168.656ZM168.464 145.192C168.304 145.192 168.168 145.144 168.056 145.048C167.96 144.936 167.912 144.8 167.912 144.64V143.344C167.912 143.184 167.96 143.056 168.056 142.96C168.168 142.848 168.304 142.792 168.464 142.792H169.976C170.136 142.792 170.264 142.848 170.36 142.96C170.472 143.056 170.528 143.184 170.528 143.344V144.64C170.528 144.8 170.472 144.936 170.36 145.048C170.264 145.144 170.136 145.192 169.976 145.192H168.464ZM174.703 160C174.543 160 174.407 159.952 174.295 159.856C174.199 159.744 174.151 159.608 174.151 159.448V148.072C174.151 147.912 174.199 147.784 174.295 147.688C174.407 147.576 174.543 147.52 174.703 147.52H175.831C175.991 147.52 176.119 147.576 176.215 147.688C176.327 147.784 176.383 147.912 176.383 148.072V149.128C176.799 148.584 177.319 148.144 177.943 147.808C178.583 147.456 179.399 147.28 180.391 147.28C181.431 147.28 182.311 147.512 183.031 147.976C183.767 148.424 184.319 149.056 184.687 149.872C185.055 150.672 185.239 151.608 185.239 152.68V159.448C185.239 159.608 185.191 159.744 185.095 159.856C184.999 159.952 184.871 160 184.711 160H183.511C183.351 160 183.215 159.952 183.103 159.856C183.007 159.744 182.959 159.608 182.959 159.448V152.8C182.959 151.68 182.687 150.808 182.143 150.184C181.599 149.544 180.799 149.224 179.743 149.224C178.751 149.224 177.951 149.544 177.343 150.184C176.751 150.808 176.455 151.68 176.455 152.8V159.448C176.455 159.608 176.399 159.744 176.287 159.856C176.191 159.952 176.063 160 175.903 160H174.703ZM193.674 160.24C192.026 160.24 190.714 159.736 189.738 158.728C188.762 157.704 188.226 156.312 188.13 154.552C188.114 154.344 188.106 154.08 188.106 153.76C188.106 153.424 188.114 153.152 188.13 152.944C188.194 151.808 188.458 150.816 188.922 149.968C189.386 149.104 190.018 148.44 190.818 147.976C191.634 147.512 192.586 147.28 193.674 147.28C194.89 147.28 195.906 147.536 196.722 148.048C197.554 148.56 198.186 149.288 198.618 150.232C199.05 151.176 199.266 152.28 199.266 153.544V153.952C199.266 154.128 199.21 154.264 199.098 154.36C199.002 154.456 198.874 154.504 198.714 154.504H190.41C190.41 154.52 190.41 154.552 190.41 154.6C190.41 154.648 190.41 154.688 190.41 154.72C190.442 155.376 190.586 155.992 190.842 156.568C191.098 157.128 191.466 157.584 191.946 157.936C192.426 158.288 193.002 158.464 193.674 158.464C194.25 158.464 194.73 158.376 195.114 158.2C195.498 158.024 195.81 157.832 196.05 157.624C196.29 157.4 196.45 157.232 196.53 157.12C196.674 156.912 196.786 156.792 196.866 156.76C196.946 156.712 197.074 156.688 197.25 156.688H198.402C198.562 156.688 198.69 156.736 198.786 156.832C198.898 156.912 198.946 157.032 198.93 157.192C198.914 157.432 198.786 157.728 198.546 158.08C198.306 158.416 197.962 158.752 197.514 159.088C197.066 159.424 196.522 159.704 195.882 159.928C195.242 160.136 194.506 160.24 193.674 160.24ZM190.41 152.848H196.986V152.776C196.986 152.056 196.85 151.416 196.578 150.856C196.322 150.296 195.946 149.856 195.45 149.536C194.954 149.2 194.362 149.032 193.674 149.032C192.986 149.032 192.394 149.2 191.898 149.536C191.418 149.856 191.05 150.296 190.794 150.856C190.538 151.416 190.41 152.056 190.41 152.776V152.848ZM84.9257 188C84.7657 188 84.6297 187.952 84.5177 187.856C84.4217 187.744 84.3737 187.608 84.3737 187.448V176.072C84.3737 175.912 84.4217 175.784 84.5177 175.688C84.6297 175.576 84.7657 175.52 84.9257 175.52H86.0777C86.2377 175.52 86.3657 175.576 86.4617 175.688C86.5577 175.784 86.6057 175.912 86.6057 176.072V187.448C86.6057 187.608 86.5577 187.744 86.4617 187.856C86.3657 187.952 86.2377 188 86.0777 188H84.9257ZM84.7337 173.192C84.5737 173.192 84.4377 173.144 84.3257 173.048C84.2297 172.936 84.1817 172.8 84.1817 172.64V171.344C84.1817 171.184 84.2297 171.056 84.3257 170.96C84.4377 170.848 84.5737 170.792 84.7337 170.792H86.2457C86.4057 170.792 86.5337 170.848 86.6297 170.96C86.7417 171.056 86.7977 171.184 86.7977 171.344V172.64C86.7977 172.8 86.7417 172.936 86.6297 173.048C86.5337 173.144 86.4057 173.192 86.2457 173.192H84.7337ZM90.9725 188C90.8125 188 90.6765 187.952 90.5645 187.856C90.4685 187.744 90.4205 187.608 90.4205 187.448V176.072C90.4205 175.912 90.4685 175.784 90.5645 175.688C90.6765 175.576 90.8125 175.52 90.9725 175.52H92.1005C92.2605 175.52 92.3885 175.576 92.4845 175.688C92.5965 175.784 92.6525 175.912 92.6525 176.072V177.128C93.0685 176.584 93.5885 176.144 94.2125 175.808C94.8525 175.456 95.6685 175.28 96.6605 175.28C97.7005 175.28 98.5805 175.512 99.3005 175.976C100.037 176.424 100.589 177.056 100.957 177.872C101.325 178.672 101.509 179.608 101.509 180.68V187.448C101.509 187.608 101.461 187.744 101.365 187.856C101.269 187.952 101.141 188 100.981 188H99.7805C99.6205 188 99.4845 187.952 99.3725 187.856C99.2765 187.744 99.2285 187.608 99.2285 187.448V180.8C99.2285 179.68 98.9565 178.808 98.4125 178.184C97.8685 177.544 97.0685 177.224 96.0125 177.224C95.0205 177.224 94.2205 177.544 93.6125 178.184C93.0205 178.808 92.7245 179.68 92.7245 180.8V187.448C92.7245 187.608 92.6685 187.744 92.5565 187.856C92.4605 187.952 92.3325 188 92.1725 188H90.9725ZM109.295 188.24C108.399 188.24 107.631 188.128 106.991 187.904C106.351 187.68 105.831 187.408 105.431 187.088C105.031 186.768 104.727 186.448 104.519 186.128C104.327 185.808 104.223 185.552 104.207 185.36C104.191 185.184 104.247 185.048 104.375 184.952C104.503 184.856 104.631 184.808 104.759 184.808H105.815C105.911 184.808 105.983 184.824 106.031 184.856C106.095 184.872 106.175 184.936 106.271 185.048C106.479 185.272 106.711 185.496 106.967 185.72C107.223 185.944 107.535 186.128 107.903 186.272C108.287 186.416 108.759 186.488 109.319 186.488C110.135 186.488 110.807 186.336 111.335 186.032C111.863 185.712 112.127 185.248 112.127 184.64C112.127 184.24 112.015 183.92 111.791 183.68C111.583 183.44 111.199 183.224 110.639 183.032C110.095 182.84 109.343 182.64 108.383 182.432C107.423 182.208 106.663 181.936 106.103 181.616C105.543 181.28 105.143 180.888 104.903 180.44C104.663 179.976 104.543 179.456 104.543 178.88C104.543 178.288 104.719 177.72 105.071 177.176C105.423 176.616 105.935 176.16 106.607 175.808C107.295 175.456 108.151 175.28 109.175 175.28C110.007 175.28 110.719 175.384 111.311 175.592C111.903 175.8 112.391 176.064 112.775 176.384C113.159 176.688 113.447 176.992 113.639 177.296C113.831 177.6 113.935 177.856 113.951 178.064C113.967 178.224 113.919 178.36 113.807 178.472C113.695 178.568 113.567 178.616 113.423 178.616H112.415C112.303 178.616 112.207 178.592 112.127 178.544C112.063 178.496 111.999 178.44 111.935 178.376C111.775 178.168 111.583 177.96 111.359 177.752C111.151 177.544 110.871 177.376 110.519 177.248C110.183 177.104 109.735 177.032 109.175 177.032C108.375 177.032 107.775 177.2 107.375 177.536C106.975 177.872 106.775 178.296 106.775 178.808C106.775 179.112 106.863 179.384 107.039 179.624C107.215 179.864 107.551 180.08 108.047 180.272C108.543 180.464 109.279 180.672 110.255 180.896C111.311 181.104 112.143 181.384 112.751 181.736C113.359 182.088 113.791 182.496 114.047 182.96C114.303 183.424 114.431 183.96 114.431 184.568C114.431 185.24 114.231 185.856 113.831 186.416C113.447 186.976 112.871 187.424 112.103 187.76C111.351 188.08 110.415 188.24 109.295 188.24ZM122.058 188C121.162 188 120.434 187.832 119.874 187.496C119.314 187.144 118.906 186.656 118.65 186.032C118.394 185.392 118.266 184.64 118.266 183.776V177.44H116.394C116.234 177.44 116.098 177.392 115.986 177.296C115.89 177.184 115.842 177.048 115.842 176.888V176.072C115.842 175.912 115.89 175.784 115.986 175.688C116.098 175.576 116.234 175.52 116.394 175.52H118.266V171.512C118.266 171.352 118.314 171.224 118.41 171.128C118.522 171.016 118.658 170.96 118.818 170.96H119.946C120.106 170.96 120.234 171.016 120.33 171.128C120.442 171.224 120.498 171.352 120.498 171.512V175.52H123.474C123.634 175.52 123.762 175.576 123.858 175.688C123.97 175.784 124.026 175.912 124.026 176.072V176.888C124.026 177.048 123.97 177.184 123.858 177.296C123.762 177.392 123.634 177.44 123.474 177.44H120.498V183.608C120.498 184.36 120.626 184.952 120.882 185.384C121.138 185.816 121.594 186.032 122.25 186.032H123.714C123.874 186.032 124.002 186.088 124.098 186.2C124.21 186.296 124.266 186.424 124.266 186.584V187.448C124.266 187.608 124.21 187.744 124.098 187.856C124.002 187.952 123.874 188 123.714 188H122.058ZM130.041 188.24C129.241 188.24 128.513 188.08 127.857 187.76C127.201 187.44 126.673 187.008 126.273 186.464C125.873 185.92 125.673 185.304 125.673 184.616C125.673 183.512 126.121 182.632 127.017 181.976C127.913 181.32 129.081 180.888 130.521 180.68L134.097 180.176V179.48C134.097 178.712 133.873 178.112 133.425 177.68C132.993 177.248 132.281 177.032 131.289 177.032C130.569 177.032 129.985 177.176 129.537 177.464C129.105 177.752 128.801 178.12 128.625 178.568C128.529 178.808 128.361 178.928 128.121 178.928H127.041C126.865 178.928 126.729 178.88 126.633 178.784C126.553 178.672 126.513 178.544 126.513 178.4C126.513 178.16 126.601 177.864 126.777 177.512C126.969 177.16 127.257 176.816 127.641 176.48C128.025 176.144 128.513 175.864 129.105 175.64C129.713 175.4 130.449 175.28 131.313 175.28C132.273 175.28 133.081 175.408 133.737 175.664C134.393 175.904 134.905 176.232 135.273 176.648C135.657 177.064 135.929 177.536 136.089 178.064C136.265 178.592 136.353 179.128 136.353 179.672V187.448C136.353 187.608 136.297 187.744 136.185 187.856C136.089 187.952 135.961 188 135.801 188H134.697C134.521 188 134.385 187.952 134.289 187.856C134.193 187.744 134.145 187.608 134.145 187.448V186.416C133.937 186.704 133.657 186.992 133.305 187.28C132.953 187.552 132.513 187.784 131.985 187.976C131.457 188.152 130.809 188.24 130.041 188.24ZM130.545 186.44C131.201 186.44 131.801 186.304 132.345 186.032C132.889 185.744 133.313 185.304 133.617 184.712C133.937 184.12 134.097 183.376 134.097 182.48V181.808L131.313 182.216C130.177 182.376 129.321 182.648 128.745 183.032C128.169 183.4 127.881 183.872 127.881 184.448C127.881 184.896 128.009 185.272 128.265 185.576C128.537 185.864 128.873 186.08 129.273 186.224C129.689 186.368 130.113 186.44 130.545 186.44ZM140.379 188C140.219 188 140.083 187.952 139.971 187.856C139.875 187.744 139.827 187.608 139.827 187.448V171.512C139.827 171.352 139.875 171.224 139.971 171.128C140.083 171.016 140.219 170.96 140.379 170.96H141.507C141.683 170.96 141.819 171.016 141.915 171.128C142.011 171.224 142.059 171.352 142.059 171.512V187.448C142.059 187.608 142.011 187.744 141.915 187.856C141.819 187.952 141.683 188 141.507 188H140.379ZM146.215 188C146.055 188 145.919 187.952 145.807 187.856C145.711 187.744 145.663 187.608 145.663 187.448V171.512C145.663 171.352 145.711 171.224 145.807 171.128C145.919 171.016 146.055 170.96 146.215 170.96H147.343C147.519 170.96 147.655 171.016 147.751 171.128C147.847 171.224 147.895 171.352 147.895 171.512V187.448C147.895 187.608 147.847 187.744 147.751 187.856C147.655 187.952 147.519 188 147.343 188H146.215ZM156.443 188.24C154.795 188.24 153.483 187.736 152.507 186.728C151.531 185.704 150.995 184.312 150.899 182.552C150.883 182.344 150.875 182.08 150.875 181.76C150.875 181.424 150.883 181.152 150.899 180.944C150.963 179.808 151.227 178.816 151.691 177.968C152.155 177.104 152.787 176.44 153.587 175.976C154.403 175.512 155.355 175.28 156.443 175.28C157.659 175.28 158.675 175.536 159.491 176.048C160.323 176.56 160.955 177.288 161.387 178.232C161.819 179.176 162.035 180.28 162.035 181.544V181.952C162.035 182.128 161.979 182.264 161.867 182.36C161.771 182.456 161.643 182.504 161.483 182.504H153.179C153.179 182.52 153.179 182.552 153.179 182.6C153.179 182.648 153.179 182.688 153.179 182.72C153.211 183.376 153.355 183.992 153.611 184.568C153.867 185.128 154.235 185.584 154.715 185.936C155.195 186.288 155.771 186.464 156.443 186.464C157.019 186.464 157.499 186.376 157.883 186.2C158.267 186.024 158.579 185.832 158.819 185.624C159.059 185.4 159.219 185.232 159.299 185.12C159.443 184.912 159.555 184.792 159.635 184.76C159.715 184.712 159.843 184.688 160.019 184.688H161.171C161.331 184.688 161.459 184.736 161.555 184.832C161.667 184.912 161.715 185.032 161.699 185.192C161.683 185.432 161.555 185.728 161.315 186.08C161.075 186.416 160.731 186.752 160.283 187.088C159.835 187.424 159.291 187.704 158.651 187.928C158.011 188.136 157.275 188.24 156.443 188.24ZM153.179 180.848H159.755V180.776C159.755 180.056 159.619 179.416 159.347 178.856C159.091 178.296 158.715 177.856 158.219 177.536C157.723 177.2 157.131 177.032 156.443 177.032C155.755 177.032 155.163 177.2 154.667 177.536C154.187 177.856 153.819 178.296 153.563 178.856C153.307 179.416 153.179 180.056 153.179 180.776V180.848ZM169.465 188.24C168.585 188.24 167.825 188.088 167.185 187.784C166.545 187.464 166.017 187.04 165.601 186.512C165.201 185.968 164.897 185.352 164.689 184.664C164.497 183.976 164.385 183.248 164.353 182.48C164.337 182.224 164.329 181.984 164.329 181.76C164.329 181.536 164.337 181.296 164.353 181.04C164.385 180.288 164.497 179.568 164.689 178.88C164.897 178.192 165.201 177.576 165.601 177.032C166.017 176.488 166.545 176.064 167.185 175.76C167.825 175.44 168.585 175.28 169.465 175.28C170.409 175.28 171.193 175.448 171.817 175.784C172.441 176.12 172.953 176.536 173.353 177.032V171.512C173.353 171.352 173.401 171.224 173.497 171.128C173.609 171.016 173.745 170.96 173.905 170.96H175.057C175.217 170.96 175.345 171.016 175.441 171.128C175.553 171.224 175.609 171.352 175.609 171.512V187.448C175.609 187.608 175.553 187.744 175.441 187.856C175.345 187.952 175.217 188 175.057 188H173.977C173.801 188 173.665 187.952 173.569 187.856C173.473 187.744 173.425 187.608 173.425 187.448V186.44C173.025 186.952 172.505 187.384 171.865 187.736C171.225 188.072 170.425 188.24 169.465 188.24ZM169.969 186.296C170.769 186.296 171.409 186.112 171.889 185.744C172.369 185.376 172.729 184.912 172.969 184.352C173.209 183.776 173.337 183.192 173.353 182.6C173.369 182.344 173.377 182.04 173.377 181.688C173.377 181.32 173.369 181.008 173.353 180.752C173.337 180.192 173.201 179.64 172.945 179.096C172.705 178.552 172.337 178.104 171.841 177.752C171.361 177.4 170.737 177.224 169.969 177.224C169.153 177.224 168.505 177.408 168.025 177.776C167.545 178.128 167.201 178.6 166.993 179.192C166.785 179.768 166.665 180.392 166.633 181.064C166.617 181.528 166.617 181.992 166.633 182.456C166.665 183.128 166.785 183.76 166.993 184.352C167.201 184.928 167.545 185.4 168.025 185.768C168.505 186.12 169.153 186.296 169.969 186.296Z" fill="#3B3B00"/>
</svg>
