<svg width="366" height="366" viewBox="0 0 366 366" fill="none" xmlns="http://www.w3.org/2000/svg">
<circle cx="183" cy="183" r="181.5" fill="white" stroke="#8EA100" stroke-width="3"/>
<path d="M126.84 118.48V172H119.48V126.32L107 133.92L103.8 128.72L120.36 118.48H126.84ZM164.809 143.28C172.329 146.32 176.089 151.12 176.089 157.68C176.089 160.613 175.289 163.253 173.689 165.6C172.143 167.893 169.956 169.707 167.129 171.04C164.303 172.32 161.103 172.96 157.529 172.96C153.903 172.96 150.703 172.32 147.929 171.04C145.156 169.76 142.996 167.973 141.449 165.68C139.956 163.387 139.209 160.773 139.209 157.84C139.209 154.533 140.089 151.76 141.849 149.52C143.663 147.28 146.303 145.413 149.769 143.92C146.943 142.48 144.836 140.747 143.449 138.72C142.116 136.64 141.449 134.213 141.449 131.44C141.449 128.56 142.196 126.08 143.689 124C145.236 121.92 147.236 120.347 149.689 119.28C152.196 118.213 154.863 117.68 157.689 117.68C160.463 117.68 163.076 118.187 165.529 119.2C168.036 120.213 170.063 121.76 171.609 123.84C173.156 125.867 173.929 128.32 173.929 131.2C173.929 133.867 173.183 136.16 171.689 138.08C170.196 140 167.903 141.733 164.809 143.28ZM157.689 123.2C154.916 123.2 152.703 123.92 151.049 125.36C149.449 126.8 148.649 128.853 148.649 131.52C148.649 134.08 149.423 136.027 150.969 137.36C152.569 138.693 155.103 139.92 158.569 141.04L159.929 141.52C162.329 140.133 164.063 138.667 165.129 137.12C166.196 135.573 166.729 133.68 166.729 131.44C166.729 128.933 165.929 126.933 164.329 125.44C162.783 123.947 160.569 123.2 157.689 123.2ZM157.609 167.12C160.916 167.12 163.529 166.267 165.449 164.56C167.423 162.853 168.409 160.587 168.409 157.76C168.409 155.84 168.036 154.24 167.289 152.96C166.543 151.627 165.343 150.48 163.689 149.52C162.036 148.507 159.716 147.493 156.729 146.48L154.729 145.76C152.063 147.04 150.089 148.667 148.809 150.64C147.529 152.56 146.889 154.96 146.889 157.84C146.889 160.773 147.849 163.067 149.769 164.72C151.689 166.32 154.303 167.12 157.609 167.12ZM197.131 117.68C200.331 117.68 203.131 118.32 205.531 119.6C207.984 120.88 209.877 122.64 211.211 124.88C212.544 127.067 213.211 129.547 213.211 132.32C213.211 135.573 212.464 138.693 210.971 141.68C209.531 144.667 207.291 147.893 204.251 151.36C201.211 154.827 196.597 159.653 190.411 165.84H214.491L213.611 172H182.011V166.16C189.157 158.747 194.224 153.333 197.211 149.92C200.197 146.453 202.331 143.44 203.611 140.88C204.891 138.32 205.531 135.573 205.531 132.64C205.531 129.867 204.731 127.707 203.131 126.16C201.531 124.56 199.397 123.76 196.731 123.76C194.544 123.76 192.624 124.213 190.971 125.12C189.317 126.027 187.557 127.52 185.691 129.6L180.891 125.76C183.077 123.04 185.504 121.013 188.171 119.68C190.837 118.347 193.824 117.68 197.131 117.68ZM240.82 117.68C246.74 117.68 251.193 120.053 254.18 124.8C257.22 129.493 258.74 136.32 258.74 145.28C258.74 154.24 257.22 161.093 254.18 165.84C251.193 170.587 246.74 172.96 240.82 172.96C234.9 172.96 230.42 170.587 227.38 165.84C224.393 161.093 222.9 154.24 222.9 145.28C222.9 136.32 224.393 129.493 227.38 124.8C230.42 120.053 234.9 117.68 240.82 117.68ZM240.82 123.52C237.353 123.52 234.767 125.227 233.06 128.64C231.407 132.053 230.58 137.6 230.58 145.28C230.58 152.96 231.407 158.533 233.06 162C234.767 165.413 237.353 167.12 240.82 167.12C244.233 167.12 246.793 165.413 248.5 162C250.207 158.533 251.06 152.96 251.06 145.28C251.06 137.653 250.207 132.133 248.5 128.72C246.793 125.253 244.233 123.52 240.82 123.52Z" fill="#3B3B00"/>
<path d="M110.534 220.32C109.34 220.32 108.316 220.171 107.462 219.872C106.609 219.573 105.916 219.211 105.382 218.784C104.849 218.357 104.444 217.931 104.166 217.504C103.91 217.077 103.772 216.736 103.75 216.48C103.729 216.245 103.804 216.064 103.974 215.936C104.145 215.808 104.316 215.744 104.486 215.744H105.894C106.022 215.744 106.118 215.765 106.182 215.808C106.268 215.829 106.374 215.915 106.502 216.064C106.78 216.363 107.089 216.661 107.43 216.96C107.772 217.259 108.188 217.504 108.678 217.696C109.19 217.888 109.82 217.984 110.566 217.984C111.654 217.984 112.55 217.781 113.254 217.376C113.958 216.949 114.31 216.331 114.31 215.52C114.31 214.987 114.161 214.56 113.862 214.24C113.585 213.92 113.073 213.632 112.326 213.376C111.601 213.12 110.598 212.853 109.318 212.576C108.038 212.277 107.025 211.915 106.278 211.488C105.532 211.04 104.998 210.517 104.678 209.92C104.358 209.301 104.198 208.608 104.198 207.84C104.198 207.051 104.433 206.293 104.902 205.568C105.372 204.821 106.054 204.213 106.95 203.744C107.868 203.275 109.009 203.04 110.374 203.04C111.484 203.04 112.433 203.179 113.222 203.456C114.012 203.733 114.662 204.085 115.174 204.512C115.686 204.917 116.07 205.323 116.326 205.728C116.582 206.133 116.721 206.475 116.742 206.752C116.764 206.965 116.7 207.147 116.55 207.296C116.401 207.424 116.23 207.488 116.038 207.488H114.694C114.545 207.488 114.417 207.456 114.31 207.392C114.225 207.328 114.14 207.253 114.054 207.168C113.841 206.891 113.585 206.613 113.286 206.336C113.009 206.059 112.636 205.835 112.166 205.664C111.718 205.472 111.121 205.376 110.374 205.376C109.308 205.376 108.508 205.6 107.974 206.048C107.441 206.496 107.174 207.061 107.174 207.744C107.174 208.149 107.292 208.512 107.526 208.832C107.761 209.152 108.209 209.44 108.87 209.696C109.532 209.952 110.513 210.229 111.814 210.528C113.222 210.805 114.332 211.179 115.142 211.648C115.953 212.117 116.529 212.661 116.87 213.28C117.212 213.899 117.382 214.613 117.382 215.424C117.382 216.32 117.116 217.141 116.582 217.888C116.07 218.635 115.302 219.232 114.278 219.68C113.276 220.107 112.028 220.32 110.534 220.32ZM127.903 220.32C126.281 220.32 124.927 220.011 123.839 219.392C122.751 218.773 121.919 217.92 121.343 216.832C120.767 215.723 120.447 214.464 120.383 213.056C120.361 212.693 120.351 212.235 120.351 211.68C120.351 211.104 120.361 210.645 120.383 210.304C120.447 208.875 120.767 207.616 121.343 206.528C121.94 205.44 122.783 204.587 123.871 203.968C124.959 203.349 126.303 203.04 127.903 203.04C129.503 203.04 130.847 203.349 131.935 203.968C133.023 204.587 133.855 205.44 134.431 206.528C135.028 207.616 135.359 208.875 135.423 210.304C135.444 210.645 135.455 211.104 135.455 211.68C135.455 212.235 135.444 212.693 135.423 213.056C135.359 214.464 135.039 215.723 134.463 216.832C133.887 217.92 133.055 218.773 131.967 219.392C130.879 220.011 129.524 220.32 127.903 220.32ZM127.903 217.856C129.225 217.856 130.281 217.44 131.071 216.608C131.86 215.755 132.287 214.517 132.351 212.896C132.372 212.576 132.383 212.171 132.383 211.68C132.383 211.189 132.372 210.784 132.351 210.464C132.287 208.843 131.86 207.616 131.071 206.784C130.281 205.931 129.225 205.504 127.903 205.504C126.58 205.504 125.513 205.931 124.703 206.784C123.913 207.616 123.497 208.843 123.455 210.464C123.433 210.784 123.423 211.189 123.423 211.68C123.423 212.171 123.433 212.576 123.455 212.896C123.497 214.517 123.913 215.755 124.703 216.608C125.513 217.44 126.58 217.856 127.903 217.856ZM140.23 220C140.016 220 139.835 219.936 139.686 219.808C139.558 219.659 139.494 219.477 139.494 219.264V198.016C139.494 197.803 139.558 197.632 139.686 197.504C139.835 197.355 140.016 197.28 140.23 197.28H141.734C141.968 197.28 142.15 197.355 142.278 197.504C142.406 197.632 142.47 197.803 142.47 198.016V219.264C142.47 219.477 142.406 219.659 142.278 219.808C142.15 219.936 141.968 220 141.734 220H140.23ZM151.883 220.32C150.816 220.32 149.846 220.107 148.971 219.68C148.096 219.253 147.392 218.677 146.859 217.952C146.326 217.227 146.059 216.405 146.059 215.488C146.059 214.016 146.656 212.843 147.851 211.968C149.046 211.093 150.603 210.517 152.523 210.24L157.291 209.568V208.64C157.291 207.616 156.992 206.816 156.395 206.24C155.819 205.664 154.87 205.376 153.547 205.376C152.587 205.376 151.808 205.568 151.211 205.952C150.635 206.336 150.23 206.827 149.995 207.424C149.867 207.744 149.643 207.904 149.323 207.904H147.883C147.648 207.904 147.467 207.84 147.339 207.712C147.232 207.563 147.179 207.392 147.179 207.2C147.179 206.88 147.296 206.485 147.531 206.016C147.787 205.547 148.171 205.088 148.683 204.64C149.195 204.192 149.846 203.819 150.635 203.52C151.446 203.2 152.427 203.04 153.579 203.04C154.859 203.04 155.936 203.211 156.811 203.552C157.686 203.872 158.368 204.309 158.859 204.864C159.371 205.419 159.734 206.048 159.947 206.752C160.182 207.456 160.299 208.171 160.299 208.896V219.264C160.299 219.477 160.224 219.659 160.075 219.808C159.947 219.936 159.776 220 159.563 220H158.091C157.856 220 157.675 219.936 157.547 219.808C157.419 219.659 157.355 219.477 157.355 219.264V217.888C157.078 218.272 156.704 218.656 156.235 219.04C155.766 219.403 155.179 219.712 154.475 219.968C153.771 220.203 152.907 220.32 151.883 220.32ZM152.555 217.92C153.43 217.92 154.23 217.739 154.955 217.376C155.68 216.992 156.246 216.405 156.651 215.616C157.078 214.827 157.291 213.835 157.291 212.64V211.744L153.579 212.288C152.064 212.501 150.923 212.864 150.155 213.376C149.387 213.867 149.003 214.496 149.003 215.264C149.003 215.861 149.174 216.363 149.515 216.768C149.878 217.152 150.326 217.44 150.859 217.632C151.414 217.824 151.979 217.92 152.555 217.92ZM165.635 220C165.422 220 165.241 219.936 165.091 219.808C164.963 219.659 164.899 219.477 164.899 219.264V204.128C164.899 203.915 164.963 203.733 165.091 203.584C165.241 203.435 165.422 203.36 165.635 203.36H167.107C167.321 203.36 167.502 203.435 167.651 203.584C167.801 203.733 167.875 203.915 167.875 204.128V205.536C168.302 204.811 168.889 204.267 169.635 203.904C170.382 203.541 171.278 203.36 172.323 203.36H173.603C173.817 203.36 173.987 203.435 174.115 203.584C174.243 203.712 174.307 203.883 174.307 204.096V205.408C174.307 205.621 174.243 205.792 174.115 205.92C173.987 206.048 173.817 206.112 173.603 206.112H171.683C170.531 206.112 169.625 206.453 168.963 207.136C168.302 207.797 167.971 208.704 167.971 209.856V219.264C167.971 219.477 167.897 219.659 167.747 219.808C167.598 219.936 167.417 220 167.203 220H165.635ZM184.917 226.08C184.704 226.08 184.523 226.005 184.373 225.856C184.245 225.728 184.181 225.557 184.181 225.344V204.096C184.181 203.883 184.245 203.712 184.373 203.584C184.523 203.435 184.704 203.36 184.917 203.36H186.389C186.603 203.36 186.773 203.435 186.901 203.584C187.051 203.712 187.125 203.883 187.125 204.096V205.504C187.637 204.8 188.32 204.213 189.173 203.744C190.027 203.275 191.093 203.04 192.373 203.04C193.568 203.04 194.581 203.243 195.413 203.648C196.267 204.053 196.96 204.608 197.493 205.312C198.048 206.016 198.464 206.816 198.741 207.712C199.019 208.608 199.168 209.568 199.189 210.592C199.211 210.933 199.221 211.296 199.221 211.68C199.221 212.064 199.211 212.427 199.189 212.768C199.168 213.771 199.019 214.731 198.741 215.648C198.464 216.544 198.048 217.344 197.493 218.048C196.96 218.731 196.267 219.285 195.413 219.712C194.581 220.117 193.568 220.32 192.373 220.32C191.136 220.32 190.091 220.096 189.237 219.648C188.405 219.179 187.723 218.603 187.189 217.92V225.344C187.189 225.557 187.125 225.728 186.997 225.856C186.869 226.005 186.688 226.08 186.453 226.08H184.917ZM191.701 217.728C192.811 217.728 193.675 217.493 194.293 217.024C194.933 216.533 195.392 215.904 195.669 215.136C195.947 214.347 196.107 213.504 196.149 212.608C196.171 211.989 196.171 211.371 196.149 210.752C196.107 209.856 195.947 209.024 195.669 208.256C195.392 207.467 194.933 206.837 194.293 206.368C193.675 205.877 192.811 205.632 191.701 205.632C190.656 205.632 189.803 205.877 189.141 206.368C188.501 206.859 188.021 207.488 187.701 208.256C187.403 209.003 187.232 209.771 187.189 210.56C187.168 210.901 187.157 211.307 187.157 211.776C187.157 212.245 187.168 212.661 187.189 213.024C187.211 213.771 187.381 214.507 187.701 215.232C188.043 215.957 188.544 216.555 189.205 217.024C189.867 217.493 190.699 217.728 191.701 217.728ZM207.852 220.32C206.785 220.32 205.814 220.107 204.94 219.68C204.065 219.253 203.361 218.677 202.828 217.952C202.294 217.227 202.028 216.405 202.028 215.488C202.028 214.016 202.625 212.843 203.82 211.968C205.014 211.093 206.572 210.517 208.492 210.24L213.26 209.568V208.64C213.26 207.616 212.961 206.816 212.364 206.24C211.788 205.664 210.838 205.376 209.516 205.376C208.556 205.376 207.777 205.568 207.18 205.952C206.604 206.336 206.198 206.827 205.964 207.424C205.836 207.744 205.612 207.904 205.292 207.904H203.852C203.617 207.904 203.436 207.84 203.308 207.712C203.201 207.563 203.148 207.392 203.148 207.2C203.148 206.88 203.265 206.485 203.5 206.016C203.756 205.547 204.14 205.088 204.652 204.64C205.164 204.192 205.814 203.819 206.604 203.52C207.414 203.2 208.396 203.04 209.548 203.04C210.828 203.04 211.905 203.211 212.78 203.552C213.654 203.872 214.337 204.309 214.828 204.864C215.34 205.419 215.702 206.048 215.916 206.752C216.15 207.456 216.268 208.171 216.268 208.896V219.264C216.268 219.477 216.193 219.659 216.044 219.808C215.916 219.936 215.745 220 215.532 220H214.06C213.825 220 213.644 219.936 213.516 219.808C213.388 219.659 213.324 219.477 213.324 219.264V217.888C213.046 218.272 212.673 218.656 212.204 219.04C211.734 219.403 211.148 219.712 210.444 219.968C209.74 220.203 208.876 220.32 207.852 220.32ZM208.524 217.92C209.398 217.92 210.198 217.739 210.924 217.376C211.649 216.992 212.214 216.405 212.62 215.616C213.046 214.827 213.26 213.835 213.26 212.64V211.744L209.548 212.288C208.033 212.501 206.892 212.864 206.124 213.376C205.356 213.867 204.972 214.496 204.972 215.264C204.972 215.861 205.142 216.363 205.484 216.768C205.846 217.152 206.294 217.44 206.828 217.632C207.382 217.824 207.948 217.92 208.524 217.92ZM221.604 220C221.391 220 221.209 219.936 221.06 219.808C220.932 219.659 220.868 219.477 220.868 219.264V204.096C220.868 203.883 220.932 203.712 221.06 203.584C221.209 203.435 221.391 203.36 221.604 203.36H223.108C223.321 203.36 223.492 203.435 223.62 203.584C223.769 203.712 223.844 203.883 223.844 204.096V205.504C224.399 204.779 225.092 204.192 225.924 203.744C226.777 203.275 227.865 203.04 229.188 203.04C230.575 203.04 231.748 203.349 232.708 203.968C233.689 204.565 234.425 205.408 234.916 206.496C235.407 207.563 235.652 208.811 235.652 210.24V219.264C235.652 219.477 235.588 219.659 235.46 219.808C235.332 219.936 235.161 220 234.948 220H233.348C233.135 220 232.953 219.936 232.804 219.808C232.676 219.659 232.612 219.477 232.612 219.264V210.4C232.612 208.907 232.249 207.744 231.524 206.912C230.799 206.059 229.732 205.632 228.324 205.632C227.001 205.632 225.935 206.059 225.124 206.912C224.335 207.744 223.94 208.907 223.94 210.4V219.264C223.94 219.477 223.865 219.659 223.716 219.808C223.588 219.936 223.417 220 223.204 220H221.604ZM246.898 220.32C244.701 220.32 242.952 219.648 241.65 218.304C240.349 216.939 239.634 215.083 239.506 212.736C239.485 212.459 239.474 212.107 239.474 211.68C239.474 211.232 239.485 210.869 239.506 210.592C239.592 209.077 239.944 207.755 240.562 206.624C241.181 205.472 242.024 204.587 243.09 203.968C244.178 203.349 245.448 203.04 246.898 203.04C248.52 203.04 249.874 203.381 250.962 204.064C252.072 204.747 252.914 205.717 253.49 206.976C254.066 208.235 254.354 209.707 254.354 211.392V211.936C254.354 212.171 254.28 212.352 254.13 212.48C254.002 212.608 253.832 212.672 253.618 212.672H242.546C242.546 212.693 242.546 212.736 242.546 212.8C242.546 212.864 242.546 212.917 242.546 212.96C242.589 213.835 242.781 214.656 243.122 215.424C243.464 216.171 243.954 216.779 244.594 217.248C245.234 217.717 246.002 217.952 246.898 217.952C247.666 217.952 248.306 217.835 248.818 217.6C249.33 217.365 249.746 217.109 250.066 216.832C250.386 216.533 250.6 216.309 250.706 216.16C250.898 215.883 251.048 215.723 251.154 215.68C251.261 215.616 251.432 215.584 251.666 215.584H253.202C253.416 215.584 253.586 215.648 253.714 215.776C253.864 215.883 253.928 216.043 253.906 216.256C253.885 216.576 253.714 216.971 253.394 217.44C253.074 217.888 252.616 218.336 252.018 218.784C251.421 219.232 250.696 219.605 249.842 219.904C248.989 220.181 248.008 220.32 246.898 220.32ZM242.546 210.464H251.314V210.368C251.314 209.408 251.133 208.555 250.77 207.808C250.429 207.061 249.928 206.475 249.266 206.048C248.605 205.6 247.816 205.376 246.898 205.376C245.981 205.376 245.192 205.6 244.53 206.048C243.89 206.475 243.4 207.061 243.058 207.808C242.717 208.555 242.546 209.408 242.546 210.368V210.464ZM258.949 220C258.735 220 258.554 219.936 258.405 219.808C258.277 219.659 258.213 219.477 258.213 219.264V198.016C258.213 197.803 258.277 197.632 258.405 197.504C258.554 197.355 258.735 197.28 258.949 197.28H260.453C260.687 197.28 260.869 197.355 260.997 197.504C261.125 197.632 261.189 197.803 261.189 198.016V219.264C261.189 219.477 261.125 219.659 260.997 219.808C260.869 219.936 260.687 220 260.453 220H258.949ZM122.901 258C122.688 258 122.506 257.936 122.357 257.808C122.229 257.659 122.165 257.477 122.165 257.264V242.096C122.165 241.883 122.229 241.712 122.357 241.584C122.506 241.435 122.688 241.36 122.901 241.36H124.437C124.65 241.36 124.821 241.435 124.949 241.584C125.077 241.712 125.141 241.883 125.141 242.096V257.264C125.141 257.477 125.077 257.659 124.949 257.808C124.821 257.936 124.65 258 124.437 258H122.901ZM122.645 238.256C122.432 238.256 122.25 238.192 122.101 238.064C121.973 237.915 121.909 237.733 121.909 237.52V235.792C121.909 235.579 121.973 235.408 122.101 235.28C122.25 235.131 122.432 235.056 122.645 235.056H124.661C124.874 235.056 125.045 235.131 125.173 235.28C125.322 235.408 125.397 235.579 125.397 235.792V237.52C125.397 237.733 125.322 237.915 125.173 238.064C125.045 238.192 124.874 238.256 124.661 238.256H122.645ZM130.963 258C130.75 258 130.569 257.936 130.419 257.808C130.291 257.659 130.227 257.477 130.227 257.264V242.096C130.227 241.883 130.291 241.712 130.419 241.584C130.569 241.435 130.75 241.36 130.963 241.36H132.467C132.681 241.36 132.851 241.435 132.979 241.584C133.129 241.712 133.203 241.883 133.203 242.096V243.504C133.758 242.779 134.451 242.192 135.283 241.744C136.137 241.275 137.225 241.04 138.547 241.04C139.934 241.04 141.107 241.349 142.067 241.968C143.049 242.565 143.785 243.408 144.275 244.496C144.766 245.563 145.011 246.811 145.011 248.24V257.264C145.011 257.477 144.947 257.659 144.819 257.808C144.691 257.936 144.521 258 144.307 258H142.707C142.494 258 142.313 257.936 142.163 257.808C142.035 257.659 141.971 257.477 141.971 257.264V248.4C141.971 246.907 141.609 245.744 140.883 244.912C140.158 244.059 139.091 243.632 137.683 243.632C136.361 243.632 135.294 244.059 134.483 244.912C133.694 245.744 133.299 246.907 133.299 248.4V257.264C133.299 257.477 133.225 257.659 133.075 257.808C132.947 257.936 132.777 258 132.563 258H130.963ZM155.394 258.32C154.199 258.32 153.175 258.171 152.322 257.872C151.468 257.573 150.775 257.211 150.242 256.784C149.708 256.357 149.303 255.931 149.026 255.504C148.77 255.077 148.631 254.736 148.61 254.48C148.588 254.245 148.663 254.064 148.834 253.936C149.004 253.808 149.175 253.744 149.346 253.744H150.754C150.882 253.744 150.978 253.765 151.042 253.808C151.127 253.829 151.234 253.915 151.362 254.064C151.639 254.363 151.948 254.661 152.29 254.96C152.631 255.259 153.047 255.504 153.538 255.696C154.05 255.888 154.679 255.984 155.426 255.984C156.514 255.984 157.41 255.781 158.114 255.376C158.818 254.949 159.17 254.331 159.17 253.52C159.17 252.987 159.02 252.56 158.722 252.24C158.444 251.92 157.932 251.632 157.186 251.376C156.46 251.12 155.458 250.853 154.178 250.576C152.898 250.277 151.884 249.915 151.138 249.488C150.391 249.04 149.858 248.517 149.538 247.92C149.218 247.301 149.058 246.608 149.058 245.84C149.058 245.051 149.292 244.293 149.762 243.568C150.231 242.821 150.914 242.213 151.81 241.744C152.727 241.275 153.868 241.04 155.234 241.04C156.343 241.04 157.292 241.179 158.082 241.456C158.871 241.733 159.522 242.085 160.034 242.512C160.546 242.917 160.93 243.323 161.186 243.728C161.442 244.133 161.58 244.475 161.602 244.752C161.623 244.965 161.559 245.147 161.41 245.296C161.26 245.424 161.09 245.488 160.898 245.488H159.554C159.404 245.488 159.276 245.456 159.17 245.392C159.084 245.328 158.999 245.253 158.914 245.168C158.7 244.891 158.444 244.613 158.146 244.336C157.868 244.059 157.495 243.835 157.026 243.664C156.578 243.472 155.98 243.376 155.234 243.376C154.167 243.376 153.367 243.6 152.834 244.048C152.3 244.496 152.034 245.061 152.034 245.744C152.034 246.149 152.151 246.512 152.386 246.832C152.62 247.152 153.068 247.44 153.73 247.696C154.391 247.952 155.372 248.229 156.674 248.528C158.082 248.805 159.191 249.179 160.002 249.648C160.812 250.117 161.388 250.661 161.73 251.28C162.071 251.899 162.242 252.613 162.242 253.424C162.242 254.32 161.975 255.141 161.442 255.888C160.93 256.635 160.162 257.232 159.138 257.68C158.135 258.107 156.887 258.32 155.394 258.32ZM172.411 258C171.216 258 170.246 257.776 169.499 257.328C168.752 256.859 168.208 256.208 167.867 255.376C167.526 254.523 167.355 253.52 167.355 252.368V243.92H164.859C164.646 243.92 164.464 243.856 164.315 243.728C164.187 243.579 164.123 243.397 164.123 243.184V242.096C164.123 241.883 164.187 241.712 164.315 241.584C164.464 241.435 164.646 241.36 164.859 241.36H167.355V236.016C167.355 235.803 167.419 235.632 167.547 235.504C167.696 235.355 167.878 235.28 168.091 235.28H169.595C169.808 235.28 169.979 235.355 170.107 235.504C170.256 235.632 170.331 235.803 170.331 236.016V241.36H174.299C174.512 241.36 174.683 241.435 174.811 241.584C174.96 241.712 175.035 241.883 175.035 242.096V243.184C175.035 243.397 174.96 243.579 174.811 243.728C174.683 243.856 174.512 243.92 174.299 243.92H170.331V252.144C170.331 253.147 170.502 253.936 170.843 254.512C171.184 255.088 171.792 255.376 172.667 255.376H174.619C174.832 255.376 175.003 255.451 175.131 255.6C175.28 255.728 175.355 255.899 175.355 256.112V257.264C175.355 257.477 175.28 257.659 175.131 257.808C175.003 257.936 174.832 258 174.619 258H172.411ZM183.055 258.32C181.988 258.32 181.018 258.107 180.143 257.68C179.268 257.253 178.564 256.677 178.031 255.952C177.498 255.227 177.231 254.405 177.231 253.488C177.231 252.016 177.828 250.843 179.023 249.968C180.218 249.093 181.775 248.517 183.695 248.24L188.463 247.568V246.64C188.463 245.616 188.164 244.816 187.567 244.24C186.991 243.664 186.042 243.376 184.719 243.376C183.759 243.376 182.98 243.568 182.383 243.952C181.807 244.336 181.402 244.827 181.167 245.424C181.039 245.744 180.815 245.904 180.495 245.904H179.055C178.82 245.904 178.639 245.84 178.511 245.712C178.404 245.563 178.351 245.392 178.351 245.2C178.351 244.88 178.468 244.485 178.703 244.016C178.959 243.547 179.343 243.088 179.855 242.64C180.367 242.192 181.018 241.819 181.807 241.52C182.618 241.2 183.599 241.04 184.751 241.04C186.031 241.04 187.108 241.211 187.983 241.552C188.858 241.872 189.54 242.309 190.031 242.864C190.543 243.419 190.906 244.048 191.119 244.752C191.354 245.456 191.471 246.171 191.471 246.896V257.264C191.471 257.477 191.396 257.659 191.247 257.808C191.119 257.936 190.948 258 190.735 258H189.263C189.028 258 188.847 257.936 188.719 257.808C188.591 257.659 188.527 257.477 188.527 257.264V255.888C188.25 256.272 187.876 256.656 187.407 257.04C186.938 257.403 186.351 257.712 185.647 257.968C184.943 258.203 184.079 258.32 183.055 258.32ZM183.727 255.92C184.602 255.92 185.402 255.739 186.127 255.376C186.852 254.992 187.418 254.405 187.823 253.616C188.25 252.827 188.463 251.835 188.463 250.64V249.744L184.751 250.288C183.236 250.501 182.095 250.864 181.327 251.376C180.559 251.867 180.175 252.496 180.175 253.264C180.175 253.861 180.346 254.363 180.687 254.768C181.05 255.152 181.498 255.44 182.031 255.632C182.586 255.824 183.151 255.92 183.727 255.92ZM196.839 258C196.626 258 196.444 257.936 196.295 257.808C196.167 257.659 196.103 257.477 196.103 257.264V236.016C196.103 235.803 196.167 235.632 196.295 235.504C196.444 235.355 196.626 235.28 196.839 235.28H198.343C198.578 235.28 198.759 235.355 198.887 235.504C199.015 235.632 199.079 235.803 199.079 236.016V257.264C199.079 257.477 199.015 257.659 198.887 257.808C198.759 257.936 198.578 258 198.343 258H196.839ZM204.62 258C204.407 258 204.226 257.936 204.076 257.808C203.948 257.659 203.884 257.477 203.884 257.264V236.016C203.884 235.803 203.948 235.632 204.076 235.504C204.226 235.355 204.407 235.28 204.62 235.28H206.124C206.359 235.28 206.54 235.355 206.668 235.504C206.796 235.632 206.86 235.803 206.86 236.016V257.264C206.86 257.477 206.796 257.659 206.668 257.808C206.54 257.936 206.359 258 206.124 258H204.62ZM218.258 258.32C216.06 258.32 214.311 257.648 213.01 256.304C211.708 254.939 210.994 253.083 210.866 250.736C210.844 250.459 210.834 250.107 210.834 249.68C210.834 249.232 210.844 248.869 210.866 248.592C210.951 247.077 211.303 245.755 211.922 244.624C212.54 243.472 213.383 242.587 214.45 241.968C215.538 241.349 216.807 241.04 218.258 241.04C219.879 241.04 221.234 241.381 222.322 242.064C223.431 242.747 224.274 243.717 224.85 244.976C225.426 246.235 225.714 247.707 225.714 249.392V249.936C225.714 250.171 225.639 250.352 225.49 250.48C225.362 250.608 225.191 250.672 224.978 250.672H213.906C213.906 250.693 213.906 250.736 213.906 250.8C213.906 250.864 213.906 250.917 213.906 250.96C213.948 251.835 214.14 252.656 214.482 253.424C214.823 254.171 215.314 254.779 215.954 255.248C216.594 255.717 217.362 255.952 218.258 255.952C219.026 255.952 219.666 255.835 220.178 255.6C220.69 255.365 221.106 255.109 221.426 254.832C221.746 254.533 221.959 254.309 222.066 254.16C222.258 253.883 222.407 253.723 222.514 253.68C222.62 253.616 222.791 253.584 223.026 253.584H224.562C224.775 253.584 224.946 253.648 225.074 253.776C225.223 253.883 225.287 254.043 225.266 254.256C225.244 254.576 225.074 254.971 224.754 255.44C224.434 255.888 223.975 256.336 223.378 256.784C222.78 257.232 222.055 257.605 221.202 257.904C220.348 258.181 219.367 258.32 218.258 258.32ZM213.906 248.464H222.674V248.368C222.674 247.408 222.492 246.555 222.13 245.808C221.788 245.061 221.287 244.475 220.626 244.048C219.964 243.6 219.175 243.376 218.258 243.376C217.34 243.376 216.551 243.6 215.89 244.048C215.25 244.475 214.759 245.061 214.418 245.808C214.076 246.555 213.906 247.408 213.906 248.368V248.464ZM235.62 258.32C234.447 258.32 233.433 258.117 232.58 257.712C231.727 257.285 231.023 256.72 230.468 256.016C229.935 255.291 229.529 254.469 229.252 253.552C228.996 252.635 228.847 251.664 228.804 250.64C228.783 250.299 228.772 249.979 228.772 249.68C228.772 249.381 228.783 249.061 228.804 248.72C228.847 247.717 228.996 246.757 229.252 245.84C229.529 244.923 229.935 244.101 230.468 243.376C231.023 242.651 231.727 242.085 232.58 241.68C233.433 241.253 234.447 241.04 235.62 241.04C236.879 241.04 237.924 241.264 238.756 241.712C239.588 242.16 240.271 242.715 240.804 243.376V236.016C240.804 235.803 240.868 235.632 240.996 235.504C241.145 235.355 241.327 235.28 241.54 235.28H243.076C243.289 235.28 243.46 235.355 243.588 235.504C243.737 235.632 243.812 235.803 243.812 236.016V257.264C243.812 257.477 243.737 257.659 243.588 257.808C243.46 257.936 243.289 258 243.076 258H241.636C241.401 258 241.22 257.936 241.092 257.808C240.964 257.659 240.9 257.477 240.9 257.264V255.92C240.367 256.603 239.673 257.179 238.82 257.648C237.967 258.096 236.9 258.32 235.62 258.32ZM236.292 255.728C237.359 255.728 238.212 255.483 238.852 254.992C239.492 254.501 239.972 253.883 240.292 253.136C240.612 252.368 240.783 251.589 240.804 250.8C240.825 250.459 240.836 250.053 240.836 249.584C240.836 249.093 240.825 248.677 240.804 248.336C240.783 247.589 240.601 246.853 240.26 246.128C239.94 245.403 239.449 244.805 238.788 244.336C238.148 243.867 237.316 243.632 236.292 243.632C235.204 243.632 234.34 243.877 233.7 244.368C233.06 244.837 232.601 245.467 232.324 246.256C232.047 247.024 231.887 247.856 231.844 248.752C231.823 249.371 231.823 249.989 231.844 250.608C231.887 251.504 232.047 252.347 232.324 253.136C232.601 253.904 233.06 254.533 233.7 255.024C234.34 255.493 235.204 255.728 236.292 255.728Z" fill="#3B3B00"/>
</svg>
