<svg width="260" height="260" viewBox="0 0 260 260" fill="none" xmlns="http://www.w3.org/2000/svg">
<circle cx="130" cy="130" r="128.5" fill="white" stroke="#8EA100" stroke-width="3"/>
<path d="M120.38 79.86V120H114.86V85.74L105.5 91.44L103.1 87.54L115.52 79.86H120.38ZM152.157 84.18H136.497V96C138.537 94.96 140.677 94.44 142.917 94.44C146.357 94.44 149.117 95.58 151.197 97.86C153.277 100.1 154.317 103.2 154.317 107.16C154.317 109.8 153.737 112.16 152.577 114.24C151.417 116.28 149.777 117.88 147.657 119.04C145.577 120.16 143.157 120.72 140.397 120.72C137.957 120.72 135.777 120.3 133.857 119.46C131.937 118.58 130.157 117.3 128.517 115.62L131.757 112.44C133.037 113.72 134.357 114.68 135.717 115.32C137.077 115.92 138.617 116.22 140.337 116.22C142.897 116.22 144.897 115.42 146.337 113.82C147.817 112.22 148.557 109.96 148.557 107.04C148.557 104.12 147.897 102 146.577 100.68C145.257 99.36 143.477 98.7 141.237 98.7C140.197 98.7 139.237 98.82 138.357 99.06C137.477 99.26 136.537 99.6 135.537 100.08H131.217V79.86H152.937L152.157 84.18Z" fill="#3B3B00"/>
<path d="M89.4405 163.56C89.3125 163.56 89.2005 163.512 89.1045 163.416C89.0085 163.32 88.9605 163.208 88.9605 163.08C88.9605 163.016 88.9685 162.952 88.9845 162.888C89.0005 162.824 89.0325 162.744 89.0805 162.648L90.9285 158.256L86.3445 147.432C86.2645 147.24 86.2245 147.104 86.2245 147.024C86.2245 146.88 86.2725 146.76 86.3685 146.664C86.4645 146.568 86.5845 146.52 86.7285 146.52H87.9045C88.0645 146.52 88.1925 146.56 88.2885 146.64C88.3845 146.72 88.4485 146.816 88.4805 146.928L92.1285 155.664L95.8725 146.928C95.9205 146.816 95.9845 146.72 96.0645 146.64C96.1605 146.56 96.2965 146.52 96.4725 146.52H97.6005C97.7445 146.52 97.8645 146.568 97.9605 146.664C98.0565 146.76 98.1045 146.872 98.1045 147C98.1045 147.08 98.0645 147.224 97.9845 147.432L91.1685 163.152C91.1205 163.264 91.0485 163.36 90.9525 163.44C90.8725 163.52 90.7445 163.56 90.5685 163.56H89.4405ZM105.021 159.24C103.373 159.24 102.061 158.736 101.085 157.728C100.109 156.704 99.5733 155.312 99.4773 153.552C99.4613 153.344 99.4533 153.08 99.4533 152.76C99.4533 152.424 99.4613 152.152 99.4773 151.944C99.5413 150.808 99.8053 149.816 100.269 148.968C100.733 148.104 101.365 147.44 102.165 146.976C102.981 146.512 103.933 146.28 105.021 146.28C106.237 146.28 107.253 146.536 108.069 147.048C108.901 147.56 109.533 148.288 109.965 149.232C110.397 150.176 110.613 151.28 110.613 152.544V152.952C110.613 153.128 110.557 153.264 110.445 153.36C110.349 153.456 110.221 153.504 110.061 153.504H101.757C101.757 153.52 101.757 153.552 101.757 153.6C101.757 153.648 101.757 153.688 101.757 153.72C101.789 154.376 101.933 154.992 102.189 155.568C102.445 156.128 102.813 156.584 103.293 156.936C103.773 157.288 104.349 157.464 105.021 157.464C105.597 157.464 106.077 157.376 106.461 157.2C106.845 157.024 107.157 156.832 107.397 156.624C107.637 156.4 107.797 156.232 107.877 156.12C108.021 155.912 108.133 155.792 108.213 155.76C108.293 155.712 108.421 155.688 108.597 155.688H109.749C109.909 155.688 110.037 155.736 110.133 155.832C110.245 155.912 110.293 156.032 110.277 156.192C110.261 156.432 110.133 156.728 109.893 157.08C109.653 157.416 109.309 157.752 108.861 158.088C108.413 158.424 107.869 158.704 107.229 158.928C106.589 159.136 105.853 159.24 105.021 159.24ZM101.757 151.848H108.333V151.776C108.333 151.056 108.197 150.416 107.925 149.856C107.669 149.296 107.293 148.856 106.797 148.536C106.301 148.2 105.709 148.032 105.021 148.032C104.333 148.032 103.741 148.2 103.245 148.536C102.765 148.856 102.397 149.296 102.141 149.856C101.885 150.416 101.757 151.056 101.757 151.776V151.848ZM116.963 159.24C116.163 159.24 115.435 159.08 114.779 158.76C114.123 158.44 113.595 158.008 113.195 157.464C112.795 156.92 112.595 156.304 112.595 155.616C112.595 154.512 113.043 153.632 113.939 152.976C114.835 152.32 116.003 151.888 117.443 151.68L121.019 151.176V150.48C121.019 149.712 120.795 149.112 120.347 148.68C119.915 148.248 119.203 148.032 118.211 148.032C117.491 148.032 116.907 148.176 116.459 148.464C116.027 148.752 115.723 149.12 115.547 149.568C115.451 149.808 115.283 149.928 115.043 149.928H113.963C113.787 149.928 113.651 149.88 113.555 149.784C113.475 149.672 113.435 149.544 113.435 149.4C113.435 149.16 113.523 148.864 113.699 148.512C113.891 148.16 114.179 147.816 114.563 147.48C114.947 147.144 115.435 146.864 116.027 146.64C116.635 146.4 117.371 146.28 118.235 146.28C119.195 146.28 120.003 146.408 120.659 146.664C121.315 146.904 121.827 147.232 122.195 147.648C122.579 148.064 122.851 148.536 123.011 149.064C123.187 149.592 123.275 150.128 123.275 150.672V158.448C123.275 158.608 123.219 158.744 123.107 158.856C123.011 158.952 122.883 159 122.723 159H121.619C121.443 159 121.307 158.952 121.211 158.856C121.115 158.744 121.067 158.608 121.067 158.448V157.416C120.859 157.704 120.579 157.992 120.227 158.28C119.875 158.552 119.435 158.784 118.907 158.976C118.379 159.152 117.731 159.24 116.963 159.24ZM117.467 157.44C118.123 157.44 118.723 157.304 119.267 157.032C119.811 156.744 120.235 156.304 120.539 155.712C120.859 155.12 121.019 154.376 121.019 153.48V152.808L118.235 153.216C117.099 153.376 116.243 153.648 115.667 154.032C115.091 154.4 114.803 154.872 114.803 155.448C114.803 155.896 114.931 156.272 115.187 156.576C115.459 156.864 115.795 157.08 116.195 157.224C116.611 157.368 117.035 157.44 117.467 157.44ZM127.277 159C127.117 159 126.981 158.952 126.869 158.856C126.773 158.744 126.725 158.608 126.725 158.448V147.096C126.725 146.936 126.773 146.8 126.869 146.688C126.981 146.576 127.117 146.52 127.277 146.52H128.381C128.541 146.52 128.677 146.576 128.789 146.688C128.901 146.8 128.957 146.936 128.957 147.096V148.152C129.277 147.608 129.717 147.2 130.277 146.928C130.837 146.656 131.509 146.52 132.293 146.52H133.253C133.413 146.52 133.541 146.576 133.637 146.688C133.733 146.784 133.781 146.912 133.781 147.072V148.056C133.781 148.216 133.733 148.344 133.637 148.44C133.541 148.536 133.413 148.584 133.253 148.584H131.813C130.949 148.584 130.269 148.84 129.773 149.352C129.277 149.848 129.029 150.528 129.029 151.392V158.448C129.029 158.608 128.973 158.744 128.861 158.856C128.749 158.952 128.613 159 128.453 159H127.277ZM140.162 159.24C139.266 159.24 138.498 159.128 137.858 158.904C137.218 158.68 136.698 158.408 136.298 158.088C135.898 157.768 135.594 157.448 135.386 157.128C135.194 156.808 135.09 156.552 135.074 156.36C135.058 156.184 135.114 156.048 135.242 155.952C135.37 155.856 135.498 155.808 135.626 155.808H136.682C136.778 155.808 136.85 155.824 136.898 155.856C136.962 155.872 137.042 155.936 137.138 156.048C137.346 156.272 137.578 156.496 137.834 156.72C138.09 156.944 138.402 157.128 138.77 157.272C139.154 157.416 139.626 157.488 140.186 157.488C141.002 157.488 141.674 157.336 142.202 157.032C142.73 156.712 142.994 156.248 142.994 155.64C142.994 155.24 142.882 154.92 142.658 154.68C142.45 154.44 142.066 154.224 141.506 154.032C140.962 153.84 140.21 153.64 139.25 153.432C138.29 153.208 137.53 152.936 136.97 152.616C136.41 152.28 136.01 151.888 135.77 151.44C135.53 150.976 135.41 150.456 135.41 149.88C135.41 149.288 135.586 148.72 135.938 148.176C136.29 147.616 136.802 147.16 137.474 146.808C138.162 146.456 139.018 146.28 140.042 146.28C140.874 146.28 141.586 146.384 142.178 146.592C142.77 146.8 143.258 147.064 143.642 147.384C144.026 147.688 144.314 147.992 144.506 148.296C144.698 148.6 144.802 148.856 144.818 149.064C144.834 149.224 144.786 149.36 144.674 149.472C144.562 149.568 144.434 149.616 144.29 149.616H143.282C143.17 149.616 143.074 149.592 142.994 149.544C142.93 149.496 142.866 149.44 142.802 149.376C142.642 149.168 142.45 148.96 142.226 148.752C142.018 148.544 141.738 148.376 141.386 148.248C141.05 148.104 140.602 148.032 140.042 148.032C139.242 148.032 138.642 148.2 138.242 148.536C137.842 148.872 137.642 149.296 137.642 149.808C137.642 150.112 137.73 150.384 137.906 150.624C138.082 150.864 138.418 151.08 138.914 151.272C139.41 151.464 140.146 151.672 141.122 151.896C142.178 152.104 143.01 152.384 143.618 152.736C144.226 153.088 144.658 153.496 144.914 153.96C145.17 154.424 145.298 154.96 145.298 155.568C145.298 156.24 145.098 156.856 144.698 157.416C144.314 157.976 143.738 158.424 142.97 158.76C142.218 159.08 141.282 159.24 140.162 159.24ZM159.072 159.24C157.856 159.24 156.84 159.008 156.024 158.544C155.208 158.08 154.584 157.44 154.152 156.624C153.72 155.792 153.48 154.848 153.432 153.792C153.416 153.52 153.408 153.176 153.408 152.76C153.408 152.328 153.416 151.984 153.432 151.728C153.48 150.656 153.72 149.712 154.152 148.896C154.6 148.08 155.232 147.44 156.048 146.976C156.864 146.512 157.872 146.28 159.072 146.28C160.272 146.28 161.28 146.512 162.096 146.976C162.912 147.44 163.536 148.08 163.968 148.896C164.416 149.712 164.664 150.656 164.712 151.728C164.728 151.984 164.736 152.328 164.736 152.76C164.736 153.176 164.728 153.52 164.712 153.792C164.664 154.848 164.424 155.792 163.992 156.624C163.56 157.44 162.936 158.08 162.12 158.544C161.304 159.008 160.288 159.24 159.072 159.24ZM159.072 157.392C160.064 157.392 160.856 157.08 161.448 156.456C162.04 155.816 162.36 154.888 162.408 153.672C162.424 153.432 162.432 153.128 162.432 152.76C162.432 152.392 162.424 152.088 162.408 151.848C162.36 150.632 162.04 149.712 161.448 149.088C160.856 148.448 160.064 148.128 159.072 148.128C158.08 148.128 157.28 148.448 156.672 149.088C156.08 149.712 155.768 150.632 155.736 151.848C155.72 152.088 155.712 152.392 155.712 152.76C155.712 153.128 155.72 153.432 155.736 153.672C155.768 154.888 156.08 155.816 156.672 156.456C157.28 157.08 158.08 157.392 159.072 157.392ZM169.4 159C169.24 159 169.104 158.952 168.992 158.856C168.896 158.744 168.848 158.608 168.848 158.448V148.44H166.808C166.648 148.44 166.512 148.392 166.4 148.296C166.304 148.184 166.256 148.048 166.256 147.888V147.072C166.256 146.912 166.304 146.784 166.4 146.688C166.512 146.576 166.648 146.52 166.808 146.52H168.848V145.32C168.848 144.504 168.984 143.792 169.256 143.184C169.528 142.56 169.96 142.08 170.552 141.744C171.16 141.408 171.968 141.24 172.976 141.24H174.416C174.576 141.24 174.704 141.296 174.8 141.408C174.896 141.504 174.944 141.632 174.944 141.792V142.608C174.944 142.768 174.896 142.904 174.8 143.016C174.704 143.112 174.576 143.16 174.416 143.16H173.024C172.272 143.16 171.76 143.36 171.488 143.76C171.216 144.144 171.08 144.704 171.08 145.44V146.52H174.176C174.336 146.52 174.464 146.576 174.56 146.688C174.656 146.784 174.704 146.912 174.704 147.072V147.888C174.704 148.048 174.656 148.184 174.56 148.296C174.464 148.392 174.336 148.44 174.176 148.44H171.08V158.448C171.08 158.608 171.024 158.744 170.912 158.856C170.816 158.952 170.688 159 170.528 159H169.4ZM75.0096 187.24C73.3616 187.24 72.0496 186.736 71.0736 185.728C70.0976 184.704 69.5616 183.312 69.4656 181.552C69.4496 181.344 69.4416 181.08 69.4416 180.76C69.4416 180.424 69.4496 180.152 69.4656 179.944C69.5296 178.808 69.7936 177.816 70.2576 176.968C70.7216 176.104 71.3536 175.44 72.1536 174.976C72.9696 174.512 73.9216 174.28 75.0096 174.28C76.2256 174.28 77.2416 174.536 78.0576 175.048C78.8896 175.56 79.5216 176.288 79.9536 177.232C80.3856 178.176 80.6016 179.28 80.6016 180.544V180.952C80.6016 181.128 80.5456 181.264 80.4336 181.36C80.3376 181.456 80.2096 181.504 80.0496 181.504H71.7456C71.7456 181.52 71.7456 181.552 71.7456 181.6C71.7456 181.648 71.7456 181.688 71.7456 181.72C71.7776 182.376 71.9216 182.992 72.1776 183.568C72.4336 184.128 72.8016 184.584 73.2816 184.936C73.7616 185.288 74.3376 185.464 75.0096 185.464C75.5856 185.464 76.0656 185.376 76.4496 185.2C76.8336 185.024 77.1456 184.832 77.3856 184.624C77.6256 184.4 77.7856 184.232 77.8656 184.12C78.0096 183.912 78.1216 183.792 78.2016 183.76C78.2816 183.712 78.4096 183.688 78.5856 183.688H79.7376C79.8976 183.688 80.0256 183.736 80.1216 183.832C80.2336 183.912 80.2816 184.032 80.2656 184.192C80.2496 184.432 80.1216 184.728 79.8816 185.08C79.6416 185.416 79.2976 185.752 78.8496 186.088C78.4016 186.424 77.8576 186.704 77.2176 186.928C76.5776 187.136 75.8416 187.24 75.0096 187.24ZM71.7456 179.848H78.3216V179.776C78.3216 179.056 78.1856 178.416 77.9136 177.856C77.6576 177.296 77.2816 176.856 76.7856 176.536C76.2896 176.2 75.6976 176.032 75.0096 176.032C74.3216 176.032 73.7296 176.2 73.2336 176.536C72.7536 176.856 72.3856 177.296 72.1296 177.856C71.8736 178.416 71.7456 179.056 71.7456 179.776V179.848ZM82.6375 187C82.5095 187 82.3895 186.952 82.2775 186.856C82.1815 186.76 82.1335 186.64 82.1335 186.496C82.1335 186.448 82.1415 186.392 82.1575 186.328C82.1895 186.248 82.2375 186.16 82.3015 186.064L86.4775 180.616L82.5655 175.456C82.5015 175.36 82.4535 175.28 82.4215 175.216C82.4055 175.152 82.3975 175.088 82.3975 175.024C82.3975 174.88 82.4455 174.76 82.5415 174.664C82.6375 174.568 82.7575 174.52 82.9015 174.52H84.1255C84.3015 174.52 84.4295 174.568 84.5095 174.664C84.6055 174.744 84.6855 174.824 84.7495 174.904L87.9415 179.056L91.1335 174.928C91.1975 174.848 91.2695 174.76 91.3495 174.664C91.4455 174.568 91.5815 174.52 91.7575 174.52H92.9335C93.0775 174.52 93.1975 174.568 93.2935 174.664C93.3895 174.76 93.4375 174.88 93.4375 175.024C93.4375 175.088 93.4215 175.152 93.3895 175.216C93.3735 175.28 93.3335 175.36 93.2695 175.456L89.3095 180.664L93.4855 186.064C93.5495 186.16 93.5895 186.24 93.6055 186.304C93.6375 186.368 93.6535 186.432 93.6535 186.496C93.6535 186.64 93.6055 186.76 93.5095 186.856C93.4135 186.952 93.2935 187 93.1495 187H91.8775C91.7175 187 91.5895 186.96 91.4935 186.88C91.3975 186.8 91.3175 186.72 91.2535 186.64L87.8695 182.248L84.4855 186.64C84.4215 186.704 84.3415 186.784 84.2455 186.88C84.1655 186.96 84.0375 187 83.8615 187H82.6375ZM96.727 191.56C96.567 191.56 96.431 191.504 96.319 191.392C96.223 191.296 96.175 191.168 96.175 191.008V175.072C96.175 174.912 96.223 174.784 96.319 174.688C96.431 174.576 96.567 174.52 96.727 174.52H97.831C97.991 174.52 98.119 174.576 98.215 174.688C98.327 174.784 98.383 174.912 98.383 175.072V176.128C98.767 175.6 99.279 175.16 99.919 174.808C100.559 174.456 101.359 174.28 102.319 174.28C103.215 174.28 103.975 174.432 104.599 174.736C105.239 175.04 105.759 175.456 106.159 175.984C106.575 176.512 106.887 177.112 107.095 177.784C107.303 178.456 107.415 179.176 107.431 179.944C107.447 180.2 107.455 180.472 107.455 180.76C107.455 181.048 107.447 181.32 107.431 181.576C107.415 182.328 107.303 183.048 107.095 183.736C106.887 184.408 106.575 185.008 106.159 185.536C105.759 186.048 105.239 186.464 104.599 186.784C103.975 187.088 103.215 187.24 102.319 187.24C101.391 187.24 100.607 187.072 99.967 186.736C99.343 186.384 98.831 185.952 98.431 185.44V191.008C98.431 191.168 98.383 191.296 98.287 191.392C98.191 191.504 98.055 191.56 97.879 191.56H96.727ZM101.815 185.296C102.647 185.296 103.295 185.12 103.759 184.768C104.239 184.4 104.583 183.928 104.791 183.352C104.999 182.76 105.119 182.128 105.151 181.456C105.167 180.992 105.167 180.528 105.151 180.064C105.119 179.392 104.999 178.768 104.791 178.192C104.583 177.6 104.239 177.128 103.759 176.776C103.295 176.408 102.647 176.224 101.815 176.224C101.031 176.224 100.391 176.408 99.895 176.776C99.415 177.144 99.055 177.616 98.815 178.192C98.591 178.752 98.463 179.328 98.431 179.92C98.415 180.176 98.407 180.48 98.407 180.832C98.407 181.184 98.415 181.496 98.431 181.768C98.447 182.328 98.575 182.88 98.815 183.424C99.071 183.968 99.447 184.416 99.943 184.768C100.439 185.12 101.063 185.296 101.815 185.296ZM115.416 187.24C113.768 187.24 112.456 186.736 111.48 185.728C110.504 184.704 109.968 183.312 109.872 181.552C109.856 181.344 109.848 181.08 109.848 180.76C109.848 180.424 109.856 180.152 109.872 179.944C109.936 178.808 110.2 177.816 110.664 176.968C111.128 176.104 111.76 175.44 112.56 174.976C113.376 174.512 114.328 174.28 115.416 174.28C116.632 174.28 117.648 174.536 118.464 175.048C119.296 175.56 119.928 176.288 120.36 177.232C120.792 178.176 121.008 179.28 121.008 180.544V180.952C121.008 181.128 120.952 181.264 120.84 181.36C120.744 181.456 120.616 181.504 120.456 181.504H112.152C112.152 181.52 112.152 181.552 112.152 181.6C112.152 181.648 112.152 181.688 112.152 181.72C112.184 182.376 112.328 182.992 112.584 183.568C112.84 184.128 113.208 184.584 113.688 184.936C114.168 185.288 114.744 185.464 115.416 185.464C115.992 185.464 116.472 185.376 116.856 185.2C117.24 185.024 117.552 184.832 117.792 184.624C118.032 184.4 118.192 184.232 118.272 184.12C118.416 183.912 118.528 183.792 118.608 183.76C118.688 183.712 118.816 183.688 118.992 183.688H120.144C120.304 183.688 120.432 183.736 120.528 183.832C120.64 183.912 120.688 184.032 120.672 184.192C120.656 184.432 120.528 184.728 120.288 185.08C120.048 185.416 119.704 185.752 119.256 186.088C118.808 186.424 118.264 186.704 117.624 186.928C116.984 187.136 116.248 187.24 115.416 187.24ZM112.152 179.848H118.728V179.776C118.728 179.056 118.592 178.416 118.32 177.856C118.064 177.296 117.688 176.856 117.192 176.536C116.696 176.2 116.104 176.032 115.416 176.032C114.728 176.032 114.136 176.2 113.64 176.536C113.16 176.856 112.792 177.296 112.536 177.856C112.28 178.416 112.152 179.056 112.152 179.776V179.848ZM124.43 187C124.27 187 124.134 186.952 124.022 186.856C123.926 186.744 123.878 186.608 123.878 186.448V175.096C123.878 174.936 123.926 174.8 124.022 174.688C124.134 174.576 124.27 174.52 124.43 174.52H125.534C125.694 174.52 125.83 174.576 125.942 174.688C126.054 174.8 126.11 174.936 126.11 175.096V176.152C126.43 175.608 126.87 175.2 127.43 174.928C127.99 174.656 128.662 174.52 129.446 174.52H130.406C130.566 174.52 130.694 174.576 130.79 174.688C130.886 174.784 130.934 174.912 130.934 175.072V176.056C130.934 176.216 130.886 176.344 130.79 176.44C130.694 176.536 130.566 176.584 130.406 176.584H128.966C128.102 176.584 127.422 176.84 126.926 177.352C126.43 177.848 126.182 178.528 126.182 179.392V186.448C126.182 186.608 126.126 186.744 126.014 186.856C125.902 186.952 125.766 187 125.606 187H124.43ZM133.547 187C133.387 187 133.251 186.952 133.139 186.856C133.043 186.744 132.995 186.608 132.995 186.448V175.072C132.995 174.912 133.043 174.784 133.139 174.688C133.251 174.576 133.387 174.52 133.547 174.52H134.699C134.859 174.52 134.987 174.576 135.083 174.688C135.179 174.784 135.227 174.912 135.227 175.072V186.448C135.227 186.608 135.179 186.744 135.083 186.856C134.987 186.952 134.859 187 134.699 187H133.547ZM133.355 172.192C133.195 172.192 133.059 172.144 132.947 172.048C132.851 171.936 132.803 171.8 132.803 171.64V170.344C132.803 170.184 132.851 170.056 132.947 169.96C133.059 169.848 133.195 169.792 133.355 169.792H134.867C135.027 169.792 135.155 169.848 135.251 169.96C135.363 170.056 135.419 170.184 135.419 170.344V171.64C135.419 171.8 135.363 171.936 135.251 172.048C135.155 172.144 135.027 172.192 134.867 172.192H133.355ZM143.822 187.24C142.174 187.24 140.862 186.736 139.886 185.728C138.91 184.704 138.374 183.312 138.278 181.552C138.262 181.344 138.254 181.08 138.254 180.76C138.254 180.424 138.262 180.152 138.278 179.944C138.342 178.808 138.606 177.816 139.07 176.968C139.534 176.104 140.166 175.44 140.966 174.976C141.782 174.512 142.734 174.28 143.822 174.28C145.038 174.28 146.054 174.536 146.87 175.048C147.702 175.56 148.334 176.288 148.766 177.232C149.198 178.176 149.414 179.28 149.414 180.544V180.952C149.414 181.128 149.358 181.264 149.246 181.36C149.15 181.456 149.022 181.504 148.862 181.504H140.558C140.558 181.52 140.558 181.552 140.558 181.6C140.558 181.648 140.558 181.688 140.558 181.72C140.59 182.376 140.734 182.992 140.99 183.568C141.246 184.128 141.614 184.584 142.094 184.936C142.574 185.288 143.15 185.464 143.822 185.464C144.398 185.464 144.878 185.376 145.262 185.2C145.646 185.024 145.958 184.832 146.198 184.624C146.438 184.4 146.598 184.232 146.678 184.12C146.822 183.912 146.934 183.792 147.014 183.76C147.094 183.712 147.222 183.688 147.398 183.688H148.55C148.71 183.688 148.838 183.736 148.934 183.832C149.046 183.912 149.094 184.032 149.078 184.192C149.062 184.432 148.934 184.728 148.694 185.08C148.454 185.416 148.11 185.752 147.662 186.088C147.214 186.424 146.67 186.704 146.03 186.928C145.39 187.136 144.654 187.24 143.822 187.24ZM140.558 179.848H147.134V179.776C147.134 179.056 146.998 178.416 146.726 177.856C146.47 177.296 146.094 176.856 145.598 176.536C145.102 176.2 144.51 176.032 143.822 176.032C143.134 176.032 142.542 176.2 142.046 176.536C141.566 176.856 141.198 177.296 140.942 177.856C140.686 178.416 140.558 179.056 140.558 179.776V179.848ZM152.836 187C152.676 187 152.54 186.952 152.428 186.856C152.332 186.744 152.284 186.608 152.284 186.448V175.072C152.284 174.912 152.332 174.784 152.428 174.688C152.54 174.576 152.676 174.52 152.836 174.52H153.964C154.124 174.52 154.252 174.576 154.348 174.688C154.46 174.784 154.516 174.912 154.516 175.072V176.128C154.932 175.584 155.452 175.144 156.076 174.808C156.716 174.456 157.532 174.28 158.524 174.28C159.564 174.28 160.444 174.512 161.164 174.976C161.9 175.424 162.452 176.056 162.82 176.872C163.188 177.672 163.372 178.608 163.372 179.68V186.448C163.372 186.608 163.324 186.744 163.228 186.856C163.132 186.952 163.004 187 162.844 187H161.644C161.484 187 161.348 186.952 161.236 186.856C161.14 186.744 161.092 186.608 161.092 186.448V179.8C161.092 178.68 160.82 177.808 160.276 177.184C159.732 176.544 158.932 176.224 157.876 176.224C156.884 176.224 156.084 176.544 155.476 177.184C154.884 177.808 154.588 178.68 154.588 179.8V186.448C154.588 186.608 154.532 186.744 154.42 186.856C154.324 186.952 154.196 187 154.036 187H152.836ZM171.879 187.24C170.743 187.24 169.759 187.024 168.927 186.592C168.111 186.144 167.479 185.512 167.031 184.696C166.583 183.864 166.343 182.872 166.311 181.72C166.295 181.48 166.287 181.16 166.287 180.76C166.287 180.36 166.295 180.04 166.311 179.8C166.343 178.648 166.583 177.664 167.031 176.848C167.479 176.016 168.111 175.384 168.927 174.952C169.759 174.504 170.743 174.28 171.879 174.28C172.807 174.28 173.599 174.408 174.255 174.664C174.927 174.92 175.479 175.248 175.911 175.648C176.343 176.048 176.663 176.48 176.871 176.944C177.095 177.408 177.215 177.848 177.231 178.264C177.247 178.424 177.199 178.552 177.087 178.648C176.975 178.744 176.839 178.792 176.679 178.792H175.527C175.367 178.792 175.247 178.76 175.167 178.696C175.087 178.616 175.007 178.488 174.927 178.312C174.639 177.528 174.247 176.976 173.751 176.656C173.255 176.336 172.639 176.176 171.903 176.176C170.943 176.176 170.159 176.472 169.551 177.064C168.959 177.656 168.639 178.608 168.59 179.92C168.575 180.496 168.575 181.056 168.59 181.6C168.639 182.928 168.959 183.888 169.551 184.48C170.159 185.056 170.943 185.344 171.903 185.344C172.639 185.344 173.255 185.184 173.751 184.864C174.247 184.544 174.639 183.992 174.927 183.208C175.007 183.032 175.087 182.912 175.167 182.848C175.247 182.768 175.367 182.728 175.527 182.728H176.679C176.839 182.728 176.975 182.776 177.087 182.872C177.199 182.968 177.247 183.096 177.231 183.256C177.215 183.592 177.143 183.936 177.015 184.288C176.887 184.64 176.679 185 176.391 185.368C176.119 185.72 175.775 186.04 175.359 186.328C174.943 186.6 174.439 186.824 173.847 187C173.271 187.16 172.615 187.24 171.879 187.24ZM185.049 187.24C183.401 187.24 182.089 186.736 181.113 185.728C180.137 184.704 179.601 183.312 179.505 181.552C179.489 181.344 179.481 181.08 179.481 180.76C179.481 180.424 179.489 180.152 179.505 179.944C179.569 178.808 179.833 177.816 180.297 176.968C180.761 176.104 181.393 175.44 182.193 174.976C183.009 174.512 183.961 174.28 185.049 174.28C186.265 174.28 187.281 174.536 188.097 175.048C188.929 175.56 189.561 176.288 189.993 177.232C190.425 178.176 190.641 179.28 190.641 180.544V180.952C190.641 181.128 190.585 181.264 190.473 181.36C190.377 181.456 190.249 181.504 190.089 181.504H181.785C181.785 181.52 181.785 181.552 181.785 181.6C181.785 181.648 181.785 181.688 181.785 181.72C181.817 182.376 181.961 182.992 182.217 183.568C182.473 184.128 182.841 184.584 183.321 184.936C183.801 185.288 184.377 185.464 185.049 185.464C185.625 185.464 186.105 185.376 186.489 185.2C186.873 185.024 187.185 184.832 187.425 184.624C187.665 184.4 187.825 184.232 187.905 184.12C188.049 183.912 188.161 183.792 188.241 183.76C188.321 183.712 188.449 183.688 188.625 183.688H189.777C189.937 183.688 190.065 183.736 190.161 183.832C190.273 183.912 190.321 184.032 190.305 184.192C190.289 184.432 190.161 184.728 189.921 185.08C189.681 185.416 189.337 185.752 188.889 186.088C188.441 186.424 187.897 186.704 187.257 186.928C186.617 187.136 185.881 187.24 185.049 187.24ZM181.785 179.848H188.361V179.776C188.361 179.056 188.225 178.416 187.953 177.856C187.697 177.296 187.321 176.856 186.825 176.536C186.329 176.2 185.737 176.032 185.049 176.032C184.361 176.032 183.769 176.2 183.273 176.536C182.793 176.856 182.425 177.296 182.169 177.856C181.913 178.416 181.785 179.056 181.785 179.776V179.848Z" fill="#3B3B00"/>
</svg>
