<svg width="78" height="64" viewBox="0 0 78 64" fill="none" xmlns="http://www.w3.org/2000/svg">
<path d="M15.7453 63.7081C11.3851 63.7081 7.67081 62.2547 4.60248 59.3478C1.53416 56.2795 0 52.646 0 48.4472C0 46.5093 0.242236 44.5714 0.726708 42.6335C1.37267 40.5342 2.50311 37.7888 4.11801 34.3975L20.3478 0H34.882L25.1925 36.3354C29.3913 39.5652 31.4907 43.6025 31.4907 48.4472C31.4907 52.646 29.8758 56.2795 26.646 59.3478C23.5776 62.2547 19.9441 63.7081 15.7453 63.7081ZM58.8633 63.7081C54.5031 63.7081 50.7888 62.2547 47.7205 59.3478C44.6522 56.2795 43.118 52.646 43.118 48.4472C43.118 46.5093 43.3602 44.5714 43.8447 42.6335C44.4907 40.5342 45.6211 37.7888 47.236 34.3975L63.4658 0H78L68.3106 36.3354C72.5093 39.5652 74.6087 43.6025 74.6087 48.4472C74.6087 52.646 72.9938 56.2795 69.764 59.3478C66.6956 62.2547 63.0621 63.7081 58.8633 63.7081Z" fill="#F3F39D"/>
</svg>
