<svg width="78" height="64" viewBox="0 0 78 64" fill="none" xmlns="http://www.w3.org/2000/svg">
<path d="M62.2547 63.7081C66.6149 63.7081 70.3292 62.2547 73.3975 59.3478C76.4658 56.2795 78 52.646 78 48.4472C78 46.5093 77.7578 44.5714 77.2733 42.6335C76.6273 40.5342 75.4969 37.7888 73.882 34.3975L57.6522 0H43.118L52.8075 36.3354C48.6087 39.5652 46.5093 43.6025 46.5093 48.4472C46.5093 52.646 48.1242 56.2795 51.354 59.3478C54.4224 62.2547 58.0559 63.7081 62.2547 63.7081ZM19.1367 63.7081C23.4969 63.7081 27.2112 62.2547 30.2795 59.3478C33.3478 56.2795 34.882 52.646 34.882 48.4472C34.882 46.5093 34.6398 44.5714 34.1553 42.6335C33.5093 40.5342 32.3789 37.7888 30.764 34.3975L14.5342 0H0L9.68945 36.3354C5.49068 39.5652 3.3913 43.6025 3.3913 48.4472C3.3913 52.646 5.00621 56.2795 8.23603 59.3478C11.3044 62.2547 14.9379 63.7081 19.1367 63.7081Z" fill="#F3F39D"/>
</svg>
